<svg width="90" height="90" viewBox="0 0 90 90" fill="none" xmlns="http://www.w3.org/2000/svg">
<g clip-path="url(#clip0)">
<path d="M13.537 31.1458H64.5124V88.6781H13.537V31.1458Z" fill="#FFADAD"/>
<path d="M39.0076 31.1321H64.4911V88.6792H39.0076V31.1321Z" fill="#FFADAD"/>
<path d="M13.5241 31.1321H39.0076V88.6792H13.5241V31.1321Z" fill="#FFADAD"/>
<path d="M29.3783 11.699H48.6367V19.3685H29.3783V11.699Z" fill="#FFADAD"/>
<path d="M29.3783 16.1985H48.6367V19.3687H29.3783V16.1985Z" fill="#FFADAD"/>
<path d="M88.679 27.7854C87.9495 27.7854 87.358 28.3767 87.358 29.1064V87.3584H65.8123V31.1323C65.8123 30.4026 65.2208 29.8113 64.4913 29.8113H13.5241C12.7946 29.8113 12.2031 30.4026 12.2031 31.1323V87.3584H2.64182V44.064C2.64182 43.3343 2.05031 42.743 1.32082 42.743C0.591328 42.743 0 43.3345 0 44.064V88.6792C0 89.4089 0.591504 90.0002 1.321 90.0002H88.6792C89.4087 90.0002 90.0002 89.4089 90.0002 88.6792V29.1062C90 28.3767 89.4085 27.7854 88.679 27.7854V27.7854ZM14.8451 32.4531H37.6868V70.5247C37.6868 71.2544 38.2783 71.8457 39.0078 71.8457C39.7373 71.8457 40.3288 71.2544 40.3288 70.5247V32.4531H63.1705V87.3582H40.3286V75.8087C40.3286 75.079 39.7371 74.4877 39.0076 74.4877C38.2781 74.4877 37.6866 75.079 37.6866 75.8087V87.3582H14.8451V32.4531Z" fill="#E43E2E"/>
<path d="M88.679 0H1.321C0.591504 0 0 0.591328 0 1.321V38.7802C0 39.5098 0.591504 40.1012 1.321 40.1012C2.05049 40.1012 2.64199 39.5098 2.64199 38.7802V2.64199H87.3582V23.8224C87.3582 24.5521 87.9495 25.1434 88.6792 25.1434C89.4087 25.1434 90.0002 24.5521 90.0002 23.8224V1.321C90 0.591328 89.4085 0 88.679 0V0Z" fill="#E43E2E"/>
<path d="M48.6371 20.6899C49.3666 20.6899 49.9581 20.0986 49.9581 19.3689V11.6994C49.9581 10.9697 49.3666 10.3784 48.6371 10.3784H29.3786C28.6492 10.3784 28.0576 10.9697 28.0576 11.6994V19.3689C28.0576 20.0986 28.6492 20.6899 29.3786 20.6899H48.6371ZM30.6996 13.0204H47.3161V18.0481H30.6996V13.0204Z" fill="#E43E2E"/>
<path d="M71.8166 53.4255H81.8001C82.8474 53.4255 83.485 52.2051 82.881 51.3451L77.8893 44.2406C77.3722 43.5044 76.2449 43.5044 75.7277 44.2406L70.7359 51.3451C70.1318 52.2049 70.7691 53.4255 71.8166 53.4255ZM76.8084 47.2978L79.2576 50.7837H74.3591L76.8084 47.2978Z" fill="#E43E2E"/>
<path d="M70.7362 57.8406L75.7281 64.945C76.2452 65.6812 77.3725 65.6812 77.8896 64.945L82.8813 57.8406C83.4853 56.9809 82.8479 55.7603 81.8004 55.7603H71.8169C70.7696 55.7603 70.1321 56.9807 70.7362 57.8406ZM79.2579 58.4022L76.8088 61.888L74.3596 58.4022H79.2579Z" fill="#E43E2E"/>
</g>
<defs>
<clipPath id="clip0">
<rect width="90" height="90" fill="white"/>
</clipPath>
</defs>
</svg>
