<svg width="90" height="90" viewBox="0 0 90 90" fill="none" xmlns="http://www.w3.org/2000/svg">
<g clip-path="url(#clip0)">
<path d="M7.13062 82.7135V2.41666C7.13062 1.7893 7.63915 1.28076 8.26651 1.28076H81.7348C82.3622 1.28076 82.8707 1.7893 82.8707 2.41666V82.7135H7.13062Z" fill="#FFADAD"/>
<path d="M81.733 1.28076H75.8981C76.5254 1.28076 77.034 1.7893 77.034 2.41666V82.7135H82.8689V2.41666C82.8689 1.7893 82.3603 1.28076 81.733 1.28076Z" fill="#FFADAD"/>
<path d="M77.252 82.7136H12.7487V8.3796C12.7487 7.56187 13.4116 6.89917 14.2291 6.89917H75.7712C76.5889 6.89917 77.2516 7.56204 77.2516 8.3796V82.7136H77.252Z" fill="white"/>
<path d="M75.7712 6.89917H69.9363C70.754 6.89917 71.4167 7.56204 71.4167 8.3796V82.7136H77.2516V8.3796C77.2518 7.56187 76.5889 6.89917 75.7712 6.89917Z" fill="#FFADAD"/>
<path d="M17.7014 40.9798V13.0329C17.7014 12.3811 18.2298 11.8525 18.8817 11.8525H41.2585C41.9103 11.8525 42.4389 12.3809 42.4389 13.0329V40.9798C42.4389 41.6316 41.9105 42.1602 41.2585 42.1602H18.8817C18.2299 42.1602 17.7014 41.6318 17.7014 40.9798Z" fill="white"/>
<path d="M17.7014 76.751V48.8039C17.7014 48.1521 18.2298 47.6235 18.8817 47.6235H41.2585C41.9103 47.6235 42.4389 48.1519 42.4389 48.8039V76.7508C42.4389 77.4026 41.9105 77.9312 41.2585 77.9312H18.8817C18.2299 77.9312 17.7014 77.4028 17.7014 76.751Z" fill="white"/>
<path d="M47.5605 40.9798V13.0329C47.5605 12.3811 48.0889 11.8525 48.7409 11.8525H71.1176C71.7694 11.8525 72.298 12.3809 72.298 13.0329V40.9798C72.298 41.6316 71.7696 42.1602 71.1176 42.1602H48.7407C48.0889 42.1602 47.5605 41.6318 47.5605 40.9798Z" fill="white"/>
<path d="M71.1188 11.8525H65.2839C65.9357 11.8525 66.4643 12.3809 66.4643 13.0329V40.9798C66.4643 41.6316 65.9359 42.1602 65.2839 42.1602H71.1188C71.7706 42.1602 72.2992 41.6318 72.2992 40.9798V13.0329C72.299 12.3811 71.7706 11.8525 71.1188 11.8525Z" fill="#FFADAD"/>
<path d="M47.5607 76.7513V48.8042C47.5607 48.1524 48.0891 47.6238 48.7411 47.6238H71.1179C71.7697 47.6238 72.2983 48.1522 72.2983 48.8042V76.7511C72.2983 77.4029 71.7699 77.9315 71.1179 77.9315H48.7409C48.0891 77.9315 47.5607 77.4031 47.5607 76.7513Z" fill="white"/>
<path d="M71.1182 47.6238H65.2833C65.9351 47.6238 66.4636 48.1522 66.4636 48.8041V76.7511C66.4636 77.4029 65.9352 77.9315 65.2833 77.9315H71.1182C71.7699 77.9315 72.2985 77.4031 72.2985 76.7511V48.804C72.2983 48.1522 71.7699 47.6238 71.1182 47.6238Z" fill="#FFADAD"/>
<path d="M41.2592 11.8525H35.4243C36.0761 11.8525 36.6047 12.3809 36.6047 13.0329V40.9798C36.6047 41.6316 36.0763 42.1602 35.4243 42.1602H41.2592C41.911 42.1602 42.4396 41.6318 42.4396 40.9798V13.0329C42.4394 12.3811 41.911 11.8525 41.2592 11.8525Z" fill="#FFADAD"/>
<path d="M41.2592 47.6238H35.4243C36.0761 47.6238 36.6047 48.1522 36.6047 48.8041V76.7511C36.6047 77.4029 36.0763 77.9315 35.4243 77.9315H41.2592C41.911 77.9315 42.4396 77.4031 42.4396 76.7511V48.804C42.4394 48.1522 41.911 47.6238 41.2592 47.6238Z" fill="#FFADAD"/>
<path d="M86.7522 88.7191H3.24834C2.53801 88.7191 1.96198 88.1433 1.96198 87.4328V83.3557C1.96198 82.6454 2.53783 82.0693 3.24834 82.0693H86.7522C87.4625 82.0693 88.0385 82.6452 88.0385 83.3557V87.4328C88.0385 88.1433 87.4625 88.7191 86.7522 88.7191Z" fill="#FFADAD"/>
<path d="M86.7509 82.0698H82.2024V88.7195H86.7509C87.4612 88.7195 88.0373 88.1436 88.0373 87.4331V83.356C88.0373 82.6459 87.4612 82.0698 86.7509 82.0698Z" fill="#FFADAD"/>
<path d="M41.2579 10.572H18.8811C17.5241 10.572 16.42 11.6761 16.42 13.0331V40.9802C16.42 42.3373 17.5241 43.4414 18.8811 43.4414H41.2579C42.6149 43.4414 43.719 42.3373 43.719 40.9802V13.0331C43.719 11.6761 42.6149 10.572 41.2579 10.572ZM41.1573 40.8795H18.9816V13.1337H41.1573V40.8795Z" fill="#E43E2E"/>
<path d="M41.2579 46.3433H18.8811C17.5241 46.3433 16.42 47.4473 16.42 48.8044V76.7513C16.42 78.1085 17.5241 79.2124 18.8811 79.2124H41.2579C42.6149 79.2124 43.719 78.1083 43.719 76.7513V48.8044C43.719 47.4473 42.6149 46.3433 41.2579 46.3433ZM41.1573 76.6509H18.9816V48.9051H41.1573V76.6509Z" fill="#E43E2E"/>
<path d="M71.1171 10.572H48.7405C47.3833 10.572 46.2792 11.6761 46.2792 13.0331V40.9802C46.2792 42.3373 47.3833 43.4414 48.7405 43.4414H71.1171C72.4743 43.4414 73.5784 42.3373 73.5784 40.9802V13.0331C73.5782 11.6761 72.4743 10.572 71.1171 10.572ZM71.0165 40.8795H48.8408V13.1337H71.0165V40.8795Z" fill="#E43E2E"/>
<path d="M71.1171 46.3433H48.7405C47.3833 46.3433 46.2792 47.4473 46.2792 48.8044V76.7513C46.2792 78.1085 47.3833 79.2124 48.7405 79.2124H71.1171C72.4743 79.2124 73.5784 78.1083 73.5784 76.7513V48.8044C73.5782 47.4473 72.4743 46.3433 71.1171 46.3433ZM71.0165 76.6509H48.8408V48.9051H71.0165V76.6509Z" fill="#E43E2E"/>
<path d="M86.7515 80.7888H84.1505V19.3515C84.1505 18.6441 83.5771 18.0706 82.8696 18.0706C82.1621 18.0706 81.5887 18.644 81.5887 19.3515V80.7888H78.5318V8.37976C78.5318 6.85714 77.2931 5.61841 75.7705 5.61841H14.2286C12.706 5.61841 11.4672 6.85714 11.4672 8.37976V80.7888H8.41041V68.1603C8.41041 67.453 7.83701 66.8794 7.12949 66.8794C6.42197 66.8794 5.84857 67.4528 5.84857 68.1603V80.7888H3.24771C1.83215 80.7888 0.680603 81.9405 0.680603 83.3559V87.433C0.680603 88.8485 1.83232 90.0001 3.24771 90.0001H86.7515C88.1671 90.0001 89.3187 88.8484 89.3187 87.433V83.3559C89.3187 81.9403 88.1671 80.7888 86.7515 80.7888ZM14.0289 8.37976C14.0289 8.26972 14.1184 8.18007 14.2286 8.18007H75.7707C75.8807 8.18007 75.9704 8.26954 75.9704 8.37976V80.7888H14.0289V8.37976ZM86.754 87.4382C86.754 87.4382 86.7533 87.4384 86.7515 87.4384L3.24226 87.433L3.24771 83.3504L86.757 83.3559L86.754 87.4382Z" fill="#E43E2E"/>
<path d="M7.12943 63.3605C7.83677 63.3605 8.41035 62.7871 8.41035 62.0796V2.56166H81.5888V13.2565C81.5888 13.9639 82.1622 14.5375 82.8697 14.5375C83.5772 14.5375 84.1506 13.9641 84.1506 13.2565V2.41682C84.1503 1.08404 83.066 0 81.7334 0H8.26533C6.93273 0 5.84851 1.08404 5.84851 2.41682V62.0798C5.84851 62.787 6.42191 63.3605 7.12943 63.3605Z" fill="#E43E2E"/>
</g>
<defs>
<clipPath id="clip0">
<rect width="90" height="90" fill="white"/>
</clipPath>
</defs>
</svg>
