<svg width="90" height="90" viewBox="0 0 90 90" fill="none" xmlns="http://www.w3.org/2000/svg">
<g clip-path="url(#clip0)">
<path d="M71.998 10.5V67.5H17.998V10.5C18.003 8.8452 19.3432 7.50494 20.998 7.5H68.998C70.6528 7.50494 71.9931 8.8452 71.998 10.5Z" fill="#FFADAD"/>
<path d="M20.9995 81H25.4995V87C25.4995 88.6569 26.8427 90 28.4995 90H31.4995C33.1564 90 34.4995 88.6569 34.4995 87V81H55.4995V87C55.4995 88.6569 56.8427 90 58.4995 90H61.4995C63.1564 90 64.4995 88.6569 64.4995 87V81H68.9995C71.4848 81 73.4995 78.9853 73.4995 76.5V10.5C73.4995 8.01472 71.4848 6 68.9995 6H52.1695L51.238 2.2725C50.9042 0.937111 49.7045 0.00020841 48.328 0H41.671C40.2945 0.00020841 39.0948 0.937111 38.761 2.2725L37.8295 6H20.9995C18.5142 6 16.4995 8.01472 16.4995 10.5V76.5C16.4995 78.9853 18.5142 81 20.9995 81V81ZM28.4995 87V81H31.4995V87H28.4995ZM58.4995 87V81H61.4995V87H58.4995ZM41.671 3H48.328L49.078 6H40.921L41.671 3ZM19.4995 69H53.9995C54.8279 69 55.4995 68.3284 55.4995 67.5C55.4995 66.6716 54.8279 66 53.9995 66H19.4995V10.5C19.4995 9.67157 20.1711 9 20.9995 9H68.9995C69.8279 9 70.4995 9.67157 70.4995 10.5V66H59.9995C59.1711 66 58.4995 66.6716 58.4995 67.5C58.4995 68.3284 59.1711 69 59.9995 69H70.4995V76.5C70.4995 77.3284 69.8279 78 68.9995 78H20.9995C20.1711 78 19.4995 77.3284 19.4995 76.5V69Z" fill="#E43E2E"/>
<path d="M24 75C24.8284 75 25.5 74.3284 25.5 73.5C25.5 72.6716 24.8284 72 24 72C23.1716 72 22.5 72.6716 22.5 73.5C22.5 74.3284 23.1716 75 24 75Z" fill="#E43E2E"/>
<path d="M31.4989 75H43.4989C44.3273 75 44.9989 74.3284 44.9989 73.5C44.9989 72.6716 44.3273 72 43.4989 72H31.4989C30.6705 72 29.9989 72.6716 29.9989 73.5C29.9989 74.3284 30.6705 75 31.4989 75Z" fill="#E43E2E"/>
<path d="M24 12C23.1716 12 22.5 12.6716 22.5 13.5V15C22.5 15.8284 23.1716 16.5 24 16.5C24.8284 16.5 25.5 15.8284 25.5 15V13.5C25.5 12.6716 24.8284 12 24 12Z" fill="#E43E2E"/>
<path d="M24 19.5C23.1716 19.5 22.5 20.1716 22.5 21V43.5C22.5 44.3284 23.1716 45 24 45C24.8284 45 25.5 44.3284 25.5 43.5V21C25.5 20.1716 24.8284 19.5 24 19.5Z" fill="#E43E2E"/>
</g>
<defs>
<clipPath id="clip0">
<rect width="90" height="90" fill="white"/>
</clipPath>
</defs>
</svg>
