<svg width="90" height="90" viewBox="0 0 90 90" fill="none" xmlns="http://www.w3.org/2000/svg">
<path d="M35.6274 57.3618V83.6308H54.3729V57.3618C54.3729 56.3909 53.586 55.6033 52.6151 55.6033H37.3859C36.4143 55.6033 35.6274 56.3909 35.6274 57.3618V57.3618Z" fill="#FFADAD"/>
<path d="M60.1172 59.9098V74.2964C60.1172 75.1183 60.7832 75.7851 61.6058 75.7851H77.9212C78.7438 75.7851 79.4099 75.1183 79.4099 74.2964V59.9098C79.4099 59.0879 78.7438 58.4219 77.9212 58.4219H61.6058C60.7832 58.4219 60.1172 59.0879 60.1172 59.9098Z" fill="#FFADAD"/>
<path d="M10.5914 59.9098V74.2964C10.5914 75.1183 11.2575 75.7851 12.0801 75.7851H28.3955C29.2181 75.7851 29.8841 75.1183 29.8841 74.2964V59.9098C29.8841 59.0879 29.2181 58.4219 28.3955 58.4219H12.0801C11.2575 58.4219 10.5914 59.0879 10.5914 59.9098Z" fill="#FFADAD"/>
<path d="M28.4015 11.5123V25.8968C28.4015 28.7121 30.6832 30.9931 33.4978 30.9931H56.5045C59.3191 30.9931 61.6008 28.7121 61.6008 25.8968V11.5123C61.6008 8.69774 59.3191 6.41602 56.5045 6.41602H33.4978C30.6832 6.41602 28.4015 8.69774 28.4015 11.5123V11.5123Z" fill="#FFADAD"/>
<path d="M84.1855 59.9758C83.457 59.9758 82.8671 60.5663 82.8671 61.2942V82.3124H55.6924V57.3618C55.6924 55.6651 54.3123 54.2849 52.6163 54.2849H37.3865C35.6905 54.2849 34.3103 55.6658 34.3103 57.3618V82.3124H7.13562V61.2942C7.13562 60.5663 6.54579 59.9758 5.81726 59.9758C5.08873 59.9758 4.4989 60.5663 4.4989 61.2942V82.9276C4.4989 84.0421 5.40596 84.9491 6.52039 84.9491H83.4824C84.5968 84.9491 85.5038 84.0421 85.5038 82.9276V61.2942C85.5038 60.5663 84.914 59.9758 84.1855 59.9758ZM36.947 82.3124V57.3618C36.947 57.1194 37.1441 56.9216 37.3865 56.9216H52.6163C52.8587 56.9216 53.0557 57.1194 53.0557 57.3618V82.3124H36.947Z" fill="#E43E2E"/>
<path d="M77.9228 77.1034C79.4705 77.1034 80.7298 75.8441 80.7298 74.2964V59.9098C80.7298 58.3621 79.4705 57.1035 77.9228 57.1035H61.6074C60.0597 57.1035 58.8004 58.3621 58.8004 59.9098V74.2964C58.8004 75.8441 60.0597 77.1034 61.6074 77.1034H77.9228ZM61.4371 74.2964V59.9098C61.4371 59.8165 61.5134 59.7402 61.6074 59.7402H77.9228C78.0169 59.7402 78.0931 59.8165 78.0931 59.9098V74.2964C78.0931 74.3905 78.0169 74.4667 77.9228 74.4667H61.6074C61.5134 74.4667 61.4371 74.3905 61.4371 74.2964Z" fill="#E43E2E"/>
<path d="M28.394 77.1034C29.9417 77.1034 31.201 75.8441 31.201 74.2964V59.9098C31.201 58.3621 29.9417 57.1035 28.394 57.1035H12.0786C10.5309 57.1035 9.27161 58.3621 9.27161 59.9098V74.2964C9.27161 75.8441 10.5309 77.1034 12.0786 77.1034H28.394ZM11.9083 74.2964V59.9098C11.9083 59.8165 11.9845 59.7402 12.0786 59.7402H28.394C28.4881 59.7402 28.5643 59.8165 28.5643 59.9098V74.2964C28.5643 74.3905 28.4881 74.4667 28.394 74.4667H12.0786C11.9845 74.4667 11.9083 74.3905 11.9083 74.2964Z" fill="#E43E2E"/>
<path d="M86.1259 24.5338C86.1259 23.1255 87.272 21.9802 88.6816 21.9802C89.4102 21.9802 90 21.3897 90 20.6619V17.436C90 16.7081 89.4102 16.1176 88.6816 16.1176H66.9184C66.1899 16.1176 65.6001 16.7081 65.6001 17.436C65.6001 18.1645 66.1899 18.7543 66.9184 18.7543H87.3633V19.5131C85.5581 19.9869 84.1333 21.411 83.6588 23.2155H62.9187V11.5123C62.9187 7.97539 60.041 5.09766 56.5041 5.09766H33.4966C29.959 5.09766 27.082 7.97539 27.082 11.5123V16.1176H1.31836C0.589829 16.1176 0 16.7081 0 17.436V20.6619C0 21.3897 0.589829 21.9802 1.31836 21.9802C2.72804 21.9802 3.87405 23.1255 3.87405 24.5338C3.87405 25.0097 4.12605 25.4265 4.50371 25.6586V34.6632H2.13135C1.01624 34.6632 0.109177 35.5703 0.109177 36.6847V43.8636C0.109177 44.978 1.01624 45.8851 2.13135 45.8851H4.50371V56.0303C4.50371 56.7581 5.09354 57.3486 5.82207 57.3486C6.5506 57.3486 7.14043 56.7581 7.14043 56.0303V45.8851H82.9688V56.0323C82.9688 56.7602 83.5586 57.3507 84.2871 57.3507C85.015 57.3507 85.6055 56.7602 85.6055 56.0323V45.8851H87.9778C89.0929 45.8851 90 44.978 90 43.8636V36.6847C90 35.5703 89.0929 34.6632 87.9778 34.6632H85.6055V25.5837C85.9213 25.3427 86.1259 24.9623 86.1259 24.5338V24.5338ZM29.718 11.5123C29.718 9.42902 31.4133 7.73438 33.4959 7.73438H56.5034C58.5867 7.73438 60.2813 9.42902 60.2813 11.5123V25.8968C60.2813 27.9801 58.5867 29.6748 56.5034 29.6748H33.4966C31.4133 29.6748 29.7187 27.9801 29.7187 25.8968V11.5123H29.718ZM87.3633 43.2484H2.7459V37.3H87.3633V43.2484ZM7.14043 34.6632V25.8522H23.1276C23.8561 25.8522 24.446 25.2624 24.446 24.5338C24.446 23.806 23.8561 23.2155 23.1276 23.2155H6.34117C5.8667 21.411 4.44191 19.9869 2.63672 19.5131V18.7543H27.0813V25.8975C27.0813 29.4344 29.959 32.3122 33.4959 32.3122H56.5034C60.041 32.3122 62.918 29.4344 62.918 25.8975V25.8529H82.9681V34.6632H7.14043Z" fill="#E43E2E"/>
<path d="M39.9008 68.2986H38.8461C38.1175 68.2986 37.5277 68.8891 37.5277 69.6169C37.5277 70.3448 38.1175 70.9353 38.8461 70.9353H39.9008C40.6293 70.9353 41.2191 70.3448 41.2191 69.6169C41.2191 68.8891 40.6293 68.2986 39.9008 68.2986Z" fill="#E43E2E"/>
<path d="M35.5574 12.9961H37.1731L38.8307 20.92C39.152 22.4553 40.5239 23.5704 42.0929 23.5704H49.9214C51.2995 23.5704 52.5526 22.7039 53.0394 21.4151L55.6246 14.5713C55.8705 13.9196 55.7812 13.189 55.3857 12.6171C54.9902 12.0444 54.3379 11.7025 53.6423 11.7025H42.5701C41.8423 11.7025 41.2518 12.2923 41.2518 13.0208C41.2518 13.7487 41.8423 14.3392 42.5701 14.3392H52.8938L50.573 20.4833C50.4714 20.7524 50.2097 20.9337 49.922 20.9337H42.0929C41.7654 20.9337 41.4791 20.7003 41.4118 20.3803L39.7473 12.4255C39.4967 11.228 38.4276 10.3594 37.204 10.3594H35.5581C34.8296 10.3594 34.2397 10.9492 34.2397 11.6777C34.2397 12.4056 34.8296 12.9961 35.5574 12.9961V12.9961Z" fill="#E43E2E"/>
<path d="M42.3201 24.6768H41.9685C41.24 24.6768 40.6501 25.2666 40.6501 25.9951C40.6501 26.723 41.24 27.3135 41.9685 27.3135H42.3201C43.0486 27.3135 43.6384 26.723 43.6384 25.9951C43.6384 25.2666 43.0486 24.6768 42.3201 24.6768Z" fill="#E43E2E"/>
<path d="M48.0315 24.6768H47.6799C46.9514 24.6768 46.3616 25.2666 46.3616 25.9951C46.3616 26.723 46.9514 27.3135 47.6799 27.3135H48.0315C48.76 27.3135 49.3499 26.723 49.3499 25.9951C49.3499 25.2666 48.76 24.6768 48.0315 24.6768Z" fill="#E43E2E"/>
</svg>
