<svg width="90" height="90" viewBox="0 0 90 90" fill="none" xmlns="http://www.w3.org/2000/svg">
<path d="M22.8309 17.2883C19.7743 17.2883 17.2886 19.7741 17.2886 22.8306V67.1692C17.2886 70.2258 19.7744 72.7115 22.8309 72.7115H67.1695C70.2261 72.7115 72.7118 70.2257 72.7118 67.1692V22.8306C72.7118 19.774 70.226 17.2883 67.1695 17.2883H22.8309V17.2883Z" fill="white"/>
<path d="M77.7273 90H12.2727C5.50424 90 0 84.4958 0 77.7273V12.2727C0 5.50424 5.50424 0 12.2727 0H77.7273C84.4958 0 90 5.50424 90 12.2727V77.7273C90 84.4958 84.4958 90 77.7273 90ZM12.2727 4.09096C7.76039 4.09096 4.09096 7.76057 4.09096 12.2727V77.7273C4.09096 82.2396 7.76057 85.909 12.2727 85.909H77.7273C82.2396 85.909 85.909 82.2394 85.909 77.7273V12.2727C85.909 7.76039 82.2394 4.09096 77.7273 4.09096H12.2727V4.09096Z" fill="#E43E2E"/>
<path d="M49.0908 32.7273H38.8635V45H49.0908C52.48 45 55.2271 42.2529 55.2271 38.8636C55.2271 35.4744 52.48 32.7273 49.0908 32.7273Z" fill="#FFADAD"/>
<path d="M77.7272 8.18164H12.2726C10.0124 8.18164 8.18164 10.0124 8.18164 12.2726V77.7272C8.18164 79.9874 10.0124 81.8182 12.2726 81.8182H77.7272C79.9874 81.8182 81.8182 79.9874 81.8182 77.7272V12.2726C81.8182 10.0124 79.9874 8.18164 77.7272 8.18164ZM49.0909 53.1816H38.8636V65.4543H30.6818V28.6362C30.6818 26.3761 32.5126 24.5453 34.7728 24.5453H38.8637H48.4897C56.3299 24.5453 63.1658 30.5855 63.401 38.4238C63.6462 46.532 57.1459 53.1816 49.0909 53.1816Z" fill="#FFADAD"/>
</svg>
