<svg width="90" height="90" viewBox="0 0 90 90" fill="none" xmlns="http://www.w3.org/2000/svg">
<path d="M80.1562 7.03125H49.2188C47.6677 7.03125 46.4062 8.26031 46.4062 9.76922V37.9856C47.9728 38.0756 49.2188 39.3623 49.2188 40.9514V41.947L53.9705 37.4358C54.5302 36.8761 55.2881 36.5625 56.0798 36.5625C57.7266 36.5625 59.0625 37.8984 59.0625 39.5452C59.0625 40.3369 58.7475 41.0948 58.1892 41.6545L46.4062 52.8905V59.0625H49.0781L54.1406 53.4375C54.7003 52.8778 55.4583 52.5642 56.25 52.5642C57.8981 52.5642 59.0625 54.0703 59.0625 55.7184C59.0625 56.5102 58.7475 57.2681 58.1892 57.8278L57.0586 59.0625H82.9688V9.76922C82.9688 8.26031 81.7073 7.03125 80.1562 7.03125V7.03125Z" fill="#FFADAD"/>
<path d="M2.8125 9.84375L9.84375 2.8125L23.9062 23.9062L2.8125 9.84375Z" fill="#E43E2E"/>
<path d="M26.7188 2.8125H32.3438L29.5312 18.2812L26.7188 2.8125Z" fill="#E43E2E"/>
<path d="M2.8125 32.3438V26.7188L18.2812 29.5312L2.8125 32.3438Z" fill="#E43E2E"/>
<path d="M61.875 35.1562H67.5V37.9688H61.875V35.1562Z" fill="#E43E2E"/>
<path d="M82.9688 1.40625H46.4063C43.3041 1.40625 40.7813 3.92906 40.7813 7.03125V35.4614C40.2905 35.2716 39.7618 35.1562 39.2049 35.1562C38.0489 35.1562 36.9183 35.6245 36.1013 36.4416L34.7738 37.7691C34.0889 36.2334 32.5533 35.1562 30.7674 35.1562C29.6114 35.1562 28.4808 35.6245 27.6877 36.4191C22.185 41.677 17.0972 47.828 16.8947 57.0923L15.4688 55.6678L7.85535 63.2812L9.2616 64.6875L0.824097 73.125L16.875 89.1759L25.3125 80.7384L26.7188 82.1447L34.3322 74.5312L32.926 73.125H35.8594C37.5975 73.125 39.2316 72.9745 40.7813 72.6933V74.5312C40.7813 77.6334 43.3041 80.1562 46.4063 80.1562H82.9688C86.071 80.1562 88.5938 77.6334 88.5938 74.5312V7.03125C88.5938 3.92906 86.071 1.40625 82.9688 1.40625V1.40625ZM17.4572 68.9062L21.0938 65.2697L24.7303 68.9062L21.0938 72.5428L17.4572 68.9062ZM15.4688 59.6447L19.1053 63.2812L15.4688 66.9178L11.8322 63.2812L15.4688 59.6447ZM16.875 85.1991L4.80097 73.125L11.25 66.6759L23.3241 78.75L16.875 85.1991ZM26.7188 78.1678L23.0822 74.5312L26.7188 70.8947L30.3553 74.5312L26.7188 78.1678ZM30.1135 70.3125L19.6875 59.8866V57.6562C19.6875 49.1287 24.4646 43.387 29.6522 38.43C29.9461 38.1361 30.3525 37.9688 30.7674 37.9688C31.6364 37.9688 32.3438 38.6761 32.3438 39.5452V40.1991L28.5371 44.0058L30.5255 45.9942L38.0897 38.43C38.3836 38.1361 38.79 37.9688 39.2049 37.9688C40.0739 37.9688 40.7813 38.6761 40.7813 39.5452V40.1991L34.1621 46.8183L36.1505 48.8067L45.121 39.8362C45.4149 39.5423 45.8213 39.375 46.2361 39.375C47.1052 39.375 47.8125 40.0823 47.8125 40.9514V41.3423L39.1107 49.6041L41.0471 51.6445L54.9647 38.43C55.2586 38.1361 55.665 37.9688 56.0799 37.9688C56.9489 37.9688 57.6563 38.6761 57.6563 39.5452C57.6563 39.96 57.4889 40.3664 57.2175 40.6364L42.0666 55.0856C41.2496 55.9027 40.7813 57.0333 40.7813 58.1892V59.0625C40.7813 60.4322 40.7813 63.2812 43.5938 63.2812C46.7269 63.2812 47.9278 62.3433 48.8574 61.4095L55.1349 54.4317C55.4288 54.1378 55.8352 53.9705 56.25 53.9705C57.1177 53.9705 57.6563 54.8775 57.6563 55.717C57.6563 56.1319 57.4889 56.5383 57.1528 56.8772L49.6308 65.0995C46.1236 68.6067 41.618 70.3125 35.8594 70.3125H30.1135ZM54.8438 33.75C54.8438 28.3233 59.2608 23.9062 64.6875 23.9062C70.1143 23.9062 74.5313 28.3233 74.5313 33.75C74.5313 34.3505 74.4694 34.9369 74.3653 35.5092L69.5813 29.5312H59.7657L55.5047 35.2139C55.3261 35.2378 55.1518 35.2702 54.9774 35.3166C54.8944 34.8019 54.8438 34.2802 54.8438 33.75ZM58.5085 35.8945L61.1719 32.3438H68.2313L73.2403 38.6058C71.543 41.58 68.348 43.5938 64.6875 43.5938C62.8552 43.5938 61.1241 43.0819 59.5941 42.1467C60.1468 41.3972 60.4688 40.4845 60.4688 39.5452C60.4688 38.0236 59.6883 36.682 58.5085 35.8945V35.8945ZM80.1563 77.3438H77.3438V60.4688H80.1563V77.3438ZM74.5313 77.3438H71.7188V60.4688H74.5313V77.3438ZM68.9063 77.3438H66.0938V60.4688H68.9063V77.3438ZM63.2813 77.3438H60.4688V60.4688H63.2813V77.3438ZM51.6614 67.043L52.0313 66.6394V77.3438H49.2188V69.1102C50.0682 68.4872 50.8894 67.815 51.6614 67.043ZM54.8438 63.5639L57.6563 60.4898V77.3438H54.8438V63.5639ZM43.5938 74.5312V71.9761C44.5683 71.6625 45.5105 71.2983 46.4063 70.8511V77.3438C44.8552 77.3438 43.5938 76.0823 43.5938 74.5312ZM85.7813 74.5312C85.7813 76.0823 84.5199 77.3438 82.9688 77.3438V57.6562H59.9935C60.2916 57.0544 60.4688 56.3948 60.4688 55.717C60.4688 53.2027 58.576 51.158 56.25 51.158C55.0941 51.158 53.9635 51.6263 53.0958 52.4967L48.4538 57.6562H46.4063V59.8387C45.9661 60.1622 45.2546 60.4519 43.6697 60.4645C43.5938 60.1411 43.5938 59.4816 43.5938 59.0625V58.1892C43.5938 57.7744 43.7611 57.368 44.0325 57.098L57.5564 44.2027C59.6447 45.6272 62.1408 46.4062 64.6875 46.4062C71.6668 46.4062 77.3438 40.7292 77.3438 33.75C77.3438 26.7708 71.6668 21.0938 64.6875 21.0938C57.7083 21.0938 52.0313 26.7708 52.0313 33.75C52.0313 34.8384 52.1803 35.903 52.4503 36.9394L50.1919 39.0839C49.4874 37.5989 47.9855 36.5625 46.2361 36.5625C45.2799 36.5625 44.3518 36.8972 43.5938 37.4709V7.03125C43.5938 5.48016 44.8552 4.21875 46.4063 4.21875H82.9688C84.5199 4.21875 85.7813 5.48016 85.7813 7.03125V74.5312Z" fill="#E43E2E"/>
</svg>
