<svg width="90" height="90" viewBox="0 0 90 90" fill="none" xmlns="http://www.w3.org/2000/svg">
<path d="M45 2.8125C21.6998 2.8125 2.8125 21.6998 2.8125 45C2.8125 68.3002 21.6998 87.1875 45 87.1875C68.3002 87.1875 87.1875 68.3002 87.1875 45C87.1875 21.6998 68.3002 2.8125 45 2.8125ZM45 81.5625C24.8077 81.5625 8.4375 65.1923 8.4375 45C8.4375 24.8077 24.8077 8.4375 45 8.4375C65.1923 8.4375 81.5625 24.8077 81.5625 45C81.5625 65.1923 65.1923 81.5625 45 81.5625Z" fill="#FFADAD"/>
<path d="M45 1.40625C20.9616 1.40625 1.40625 20.9616 1.40625 45C1.40625 69.0384 20.9616 88.5938 45 88.5938C69.0384 88.5938 88.5938 69.0384 88.5938 45C88.5938 20.9616 69.0384 1.40625 45 1.40625ZM45 85.7812C22.5141 85.7812 4.21875 67.4859 4.21875 45C4.21875 22.5141 22.5141 4.21875 45 4.21875C67.4859 4.21875 85.7812 22.5141 85.7812 45C85.7812 67.4859 67.4859 85.7812 45 85.7812Z" fill="#E43E2E"/>
<path d="M45 7.03125C24.0638 7.03125 7.03125 24.0638 7.03125 45C7.03125 65.9362 24.0638 82.9688 45 82.9688C65.9362 82.9688 82.9688 65.9362 82.9688 45C82.9688 24.0638 65.9362 7.03125 45 7.03125ZM45 80.1562C25.6148 80.1562 9.84375 64.3852 9.84375 45C9.84375 25.6148 25.6148 9.84375 45 9.84375C64.3852 9.84375 80.1562 25.6148 80.1562 45C80.1562 64.3852 64.3852 80.1562 45 80.1562Z" fill="#E43E2E"/>
<path d="M43.8071 29.4428C44.0644 29.8535 44.5144 30.1038 44.9996 30.1038C45.4847 30.1038 45.9347 29.8535 46.1921 29.4428L53.2233 18.1928C53.4947 17.7583 53.5088 17.2127 53.2613 16.7655C53.0124 16.3183 52.5413 16.0413 52.0308 16.0413H37.9683C37.4579 16.0413 36.9868 16.3183 36.7379 16.7669C36.4904 17.2127 36.5044 17.7597 36.7758 18.1942L43.8071 29.4428ZM49.4925 18.8538L44.9996 26.0439L40.5066 18.8538H49.4925Z" fill="#E43E2E"/>
<path d="M46.1924 60.1218C45.6791 59.3005 44.3221 59.3005 43.8088 60.1218L36.7775 71.3718C36.5061 71.8063 36.4921 72.352 36.7396 72.7991C36.9871 73.2463 37.4582 73.5234 37.9686 73.5234H52.0311C52.5416 73.5234 53.0127 73.2463 53.2616 72.7977C53.5091 72.352 53.495 71.8049 53.2236 71.3704L46.1924 60.1218ZM40.5069 70.7109L44.9999 63.5207L49.4928 70.7109H40.5069Z" fill="#E43E2E"/>
<path d="M66.6741 42.6628C65.5899 42.6628 64.6097 43.0861 63.8616 43.7597C63.1134 43.0847 62.1333 42.6628 61.0491 42.6628C58.7231 42.6628 56.8303 44.5556 56.8303 46.8816V51.1003H59.6428V46.8816C59.6428 46.1053 60.2728 45.4753 61.0491 45.4753C61.8253 45.4753 62.4553 46.1053 62.4553 46.8816V51.1003H65.2678V46.8816C65.2678 46.1053 65.8978 45.4753 66.6741 45.4753C67.4503 45.4753 68.0803 46.1053 68.0803 46.8816V51.1003H70.8928V46.8816C70.8928 44.5556 69 42.6628 66.6741 42.6628Z" fill="#E43E2E"/>
<path d="M19.1116 47.365C19.1116 48.9374 19.9676 50.1778 21.1207 50.8242C21.7147 51.1562 22.3786 51.3483 23.3045 51.3483C26.1347 51.3483 27.6197 49.1645 27.6023 47.0855C27.6023 45.5132 27.0432 43.9408 25.104 43.4516L27.3577 39.3286V38.8743H19.5833V41.6522H23.1123L21.4876 45.0415V45.4608C22.8153 45.4083 24.5624 45.3385 24.5799 47.103C24.5624 47.9241 24.0907 48.5705 23.2346 48.5705C22.396 48.5705 21.8719 48.1687 21.8545 47.365C20.9635 47.365 20.02 47.365 19.1116 47.365Z" fill="#E43E2E"/>
<path d="M30.8049 51.2086C31.7483 51.2086 32.517 50.5796 32.517 49.6188C32.517 48.6404 31.7483 47.994 30.8049 47.994C29.8265 47.994 29.0578 48.6404 29.0578 49.6188C29.0578 50.5796 29.8265 51.2086 30.8049 51.2086Z" fill="#E43E2E"/>
<path d="M41.9193 48.7802H42.9675C42.9675 47.959 42.9675 47.0855 42.9675 46.2295H41.9193V38.8743H38.5649L33.6906 47.4175V48.7802H39.0192V51.1038C39.98 51.1038 40.9584 51.1038 41.9193 51.1038V48.7802ZM39.3336 42.5257H39.3686L39.1415 44.395V46.2295H37.1848L39.3336 42.5257Z" fill="#E43E2E"/>
<path d="M49.2949 38.6472C46.814 38.6472 44.735 40.1846 44.735 42.8576C44.735 44.2203 44.735 45.7752 44.735 47.1379C44.735 49.8109 46.814 51.3483 49.2949 51.3483C51.8281 51.3483 53.8896 49.8109 53.8896 47.1379C53.8896 45.7752 53.8896 44.2203 53.8896 42.8576C53.8896 40.1846 51.8281 38.6472 49.2949 38.6472ZM49.2949 48.5705C48.4039 48.5705 47.705 48.0639 47.705 47.068C47.705 45.7578 47.705 44.2378 47.705 42.91C47.705 41.9492 48.4039 41.4425 49.2949 41.4425C50.2208 41.4425 50.9371 41.9492 50.9371 42.91C50.9371 44.2378 50.9371 45.7578 50.9371 47.068C50.9371 48.0639 50.2208 48.5705 49.2949 48.5705Z" fill="#E43E2E"/>
</svg>
