<svg width="90" height="90" viewBox="0 0 90 90" fill="none" xmlns="http://www.w3.org/2000/svg">
<path d="M67.4099 51.0953L65.4467 49.2207L70.3556 37.7675L73.0452 35.7371C77.2866 37.2944 79.4619 41.9951 77.9045 46.2359C76.3472 50.4745 71.6499 52.6498 67.4099 51.0953V51.0953Z" fill="#FFADAD"/>
<path d="M21.7355 37.8092L28.5038 19.3789L73.0444 35.7348L66.2762 54.1651L21.7355 37.8092Z" fill="#FFADAD"/>
<path d="M22.1093 8.31592L14.778 28.2822L50.1031 41.2557L55.4301 36.2404L70.789 41.8805L88.3534 32.8587L22.1093 8.31592Z" fill="#FFADAD"/>
<path d="M30.2919 28.7498L31.4194 25.6777L34.4915 26.8059L33.3633 29.878L30.2919 28.7498Z" fill="#FFADAD"/>
<path d="M36.4359 31.0054L37.5634 27.9333L40.6355 29.0615L39.5073 32.1336L36.4359 31.0054Z" fill="#FFADAD"/>
<path d="M42.5787 33.2625L43.7069 30.1904L46.7782 31.3186L45.6501 34.3906L42.5787 33.2625Z" fill="#FFADAD"/>
<path d="M88.9227 31.324L22.6772 6.78125C21.8298 6.46814 20.8891 6.90142 20.576 7.74942C20.5753 7.75011 20.5753 7.7508 20.5747 7.75148L13.2413 27.713C12.9295 28.561 13.3642 29.5017 14.2122 29.8134C14.2129 29.8134 14.2129 29.8134 14.2136 29.8141L21.8923 32.6328L20.2004 37.2422C19.8894 38.0902 20.324 39.0296 21.172 39.3413L36.5323 44.9814L35.4035 48.0542C34.3776 50.8056 35.3355 53.9037 37.7353 55.597V63.9459H15.7201C14.6544 61.5097 12.4736 59.7409 9.86916 59.2012V55.7652C9.86916 54.8616 9.13651 54.1289 8.23357 54.1289H1.63628C0.732651 54.1289 0 54.8616 0 55.7652V81.9443C0 82.8479 0.732651 83.5799 1.63628 83.5799H8.23288C9.13651 83.5799 9.86916 82.8479 9.86916 81.9443V78.5083C12.4736 77.9686 14.6544 76.1998 15.7201 73.7629H37.7353V75.3992C37.7353 78.11 39.9326 80.308 42.6434 80.308C45.3543 80.308 47.5523 78.11 47.5523 75.3992V57.2738C49.0396 56.5363 50.1876 55.2571 50.7603 53.6984L51.8898 50.6257L65.7134 55.6979C65.894 55.7645 66.0842 55.7982 66.2764 55.7982C66.9624 55.7982 67.5762 55.3704 67.8131 54.7263L68.4263 53.0557C73.7506 54.0575 78.8784 50.5536 79.8796 45.23C80.2497 43.2628 80.0093 41.2296 79.1909 39.4031L89.1095 34.3103C89.9135 33.8983 90.2314 32.9123 89.8194 32.1082C89.6327 31.7429 89.3154 31.4614 88.9309 31.3192L88.9227 31.324ZM41.0072 57.087L42.3619 57.5779C42.9785 57.799 43.6254 57.9261 44.2797 57.9542V63.9459H41.0072V57.087ZM6.59729 80.308H3.27255V57.4015H6.59729V80.308ZM13.1417 70.491C13.139 72.5702 11.8288 74.4234 9.86916 75.1197V62.5898C11.8288 63.2853 13.139 65.1386 13.1417 67.2185V70.491ZM16.4651 67.2185H44.2797V70.491H16.4651V67.2185ZM42.6434 77.0354C41.7398 77.0354 41.0072 76.3028 41.0072 75.3992V73.7629H44.2797V75.3992C44.2797 76.3028 43.5471 77.0354 42.6434 77.0354ZM48.8185 49.4989L47.6896 52.5716C47.0661 54.2663 45.1868 55.1355 43.4915 54.5134L40.4132 53.386C38.7172 52.7632 37.8465 50.8831 38.47 49.1864L39.5989 46.1151L47.8929 49.1604L48.8185 49.4989ZM65.3062 52.0676L23.8355 36.8399L24.9651 33.7671L49.5387 42.7903C50.1203 43.0018 50.7726 42.8693 51.2251 42.447L55.8167 38.1239L68.69 42.8521L65.3062 52.0676ZM76.3687 45.6736C75.3326 48.4682 72.5434 50.215 69.5764 49.9273L72.1047 43.041L76.2342 40.9137C76.881 42.4257 76.9284 44.1272 76.3687 45.6736ZM70.846 40.0156C70.7595 40.0232 70.6737 40.0389 70.5892 40.0609L56.0015 34.7044C55.4199 34.4909 54.7676 34.6234 54.3164 35.0477L49.7186 39.3708L16.8771 27.3106L23.0795 10.4205L84.2988 33.1011L70.846 40.0156Z" fill="#E43E2E"/>
<path d="M30.2919 28.7498L31.4194 25.6777L34.4915 26.8059L33.3633 29.878L30.2919 28.7498Z" fill="#E43E2E"/>
<path d="M36.4359 31.0054L37.5634 27.9333L40.6355 29.0615L39.5073 32.1336L36.4359 31.0054Z" fill="#E43E2E"/>
<path d="M42.5787 33.2625L43.7069 30.1904L46.7782 31.3186L45.6501 34.3906L42.5787 33.2625Z" fill="#E43E2E"/>
</svg>
