<svg width="90" height="90" viewBox="0 0 90 90" fill="none" xmlns="http://www.w3.org/2000/svg">
<path d="M19.4999 2.25H70.4999V87.75H19.4999V2.25Z" fill="#FFADAD"/>
<path d="M36 71.25H54V87.75H36V71.25Z" fill="#FFADAD"/>
<path d="M25.5001 8.25H34.5001V17.25H25.5001V8.25Z" fill="#FFADAD"/>
<path d="M40.4999 8.25H49.4999V17.25H40.4999V8.25Z" fill="#FFADAD"/>
<path d="M55.4998 8.25H64.4997V17.25H55.4998V8.25Z" fill="#FFADAD"/>
<path d="M25.5001 23.25H34.5001V32.25H25.5001V23.25Z" fill="#FFADAD"/>
<path d="M40.4999 23.25H49.4999V32.25H40.4999V23.25Z" fill="#FFADAD"/>
<path d="M55.4998 23.25H64.4997V32.25H55.4998V23.25Z" fill="#FFADAD"/>
<path d="M25.5001 38.2498H34.5001V47.2498H25.5001V38.2498Z" fill="#FFADAD"/>
<path d="M40.4999 38.2498H49.4999V47.2498H40.4999V38.2498Z" fill="#FFADAD"/>
<path d="M55.4998 38.2498H64.4997V47.2498H55.4998V38.2498Z" fill="#FFADAD"/>
<path d="M25.5001 53.25H34.5001V62.25H25.5001V53.25Z" fill="#FFADAD"/>
<path d="M40.4999 53.25H49.4999V62.25H40.4999V53.25Z" fill="#FFADAD"/>
<path d="M55.4998 53.25H64.4997V62.25H55.4998V53.25Z" fill="#FFADAD"/>
<path d="M76.4999 21.75H82.4999V27.75H76.4999V21.75Z" fill="#FFADAD"/>
<path d="M76.4999 33.75H82.4999V39.75H76.4999V33.75Z" fill="#FFADAD"/>
<path d="M76.4999 45.75H82.4999V51.75H76.4999V45.75Z" fill="#FFADAD"/>
<path d="M76.4999 57.75H82.4999V63.75H76.4999V57.75Z" fill="#FFADAD"/>
<path d="M76.4999 69.7498H82.4999V75.7498H76.4999V69.7498Z" fill="#FFADAD"/>
<path d="M45 71.25H54V87.75H45V71.25Z" fill="#FFADAD"/>
<path d="M88.5 14.25H72V2.25C72 1.42163 71.3284 0.75 70.5 0.75H19.5C18.6716 0.75 18 1.42163 18 2.25V23.25H1.5C0.671625 23.25 0 23.9216 0 24.75V86.25C0 87.0784 0.671625 87.75 1.5 87.75C2.32838 87.75 3 87.0784 3 86.25V26.25H18V87.75C18 88.5784 18.6716 89.25 19.5 89.25H70.5C71.3284 89.25 72 88.5784 72 87.75V17.25H87V86.25C87 87.0784 87.6716 87.75 88.5 87.75C89.3284 87.75 90 87.0784 90 86.25V15.75C90 14.9216 89.3284 14.25 88.5 14.25ZM43.5 86.25H37.5V72.75H43.5V86.25ZM52.5 86.25H46.5V72.75H52.5V86.25ZM69 86.25H55.5V71.25C55.5 70.4216 54.8284 69.75 54 69.75H36C35.1716 69.75 34.5 70.4216 34.5 71.25V86.25H21V3.75H69V86.25Z" fill="#E43E2E"/>
<path d="M25.4998 18.75H34.4998C35.3282 18.75 35.9998 18.0784 35.9998 17.25V8.25C35.9998 7.42162 35.3282 6.75 34.4998 6.75H25.4998C24.6714 6.75 23.9998 7.42162 23.9998 8.25V17.25C23.9998 18.0784 24.6714 18.75 25.4998 18.75ZM26.9998 9.75H32.9998V15.75H26.9998V9.75Z" fill="#E43E2E"/>
<path d="M40.5001 18.75H49.5001C50.3285 18.75 51.0001 18.0784 51.0001 17.25V8.25C51.0001 7.42162 50.3285 6.75 49.5001 6.75H40.5001C39.6717 6.75 39.0001 7.42162 39.0001 8.25V17.25C39.0001 18.0784 39.6717 18.75 40.5001 18.75ZM42.0001 9.75H48.0001V15.75H42.0001V9.75Z" fill="#E43E2E"/>
<path d="M55.5 18.75H64.5C65.3284 18.75 66 18.0784 66 17.25V8.25C66 7.42162 65.3284 6.75 64.5 6.75H55.5C54.6716 6.75 54 7.42162 54 8.25V17.25C54 18.0784 54.6716 18.75 55.5 18.75ZM57 9.75H63V15.75H57V9.75Z" fill="#E43E2E"/>
<path d="M25.4998 33.75H34.4998C35.3282 33.75 35.9998 33.0784 35.9998 32.25V23.25C35.9998 22.4216 35.3282 21.75 34.4998 21.75H25.4998C24.6714 21.75 23.9998 22.4216 23.9998 23.25V32.25C23.9998 33.0784 24.6714 33.75 25.4998 33.75ZM26.9998 24.75H32.9998V30.75H26.9998V24.75Z" fill="#E43E2E"/>
<path d="M40.5001 33.75H49.5001C50.3285 33.75 51.0001 33.0784 51.0001 32.25V23.25C51.0001 22.4216 50.3285 21.75 49.5001 21.75H40.5001C39.6717 21.75 39.0001 22.4216 39.0001 23.25V32.25C39.0001 33.0784 39.6717 33.75 40.5001 33.75ZM42.0001 24.75H48.0001V30.75H42.0001V24.75Z" fill="#E43E2E"/>
<path d="M55.5 33.75H64.5C65.3284 33.75 66 33.0784 66 32.25V23.25C66 22.4216 65.3284 21.75 64.5 21.75H55.5C54.6716 21.75 54 22.4216 54 23.25V32.25C54 33.0784 54.6716 33.75 55.5 33.75ZM57 24.75H63V30.75H57V24.75Z" fill="#E43E2E"/>
<path d="M25.4998 48.75H34.4998C35.3282 48.75 35.9998 48.0784 35.9998 47.25V38.25C35.9998 37.4216 35.3282 36.75 34.4998 36.75H25.4998C24.6714 36.75 23.9998 37.4216 23.9998 38.25V47.25C23.9998 48.0784 24.6714 48.75 25.4998 48.75ZM26.9998 39.75H32.9998V45.75H26.9998V39.75Z" fill="#E43E2E"/>
<path d="M40.5001 48.75H49.5001C50.3285 48.75 51.0001 48.0784 51.0001 47.25V38.25C51.0001 37.4216 50.3285 36.75 49.5001 36.75H40.5001C39.6717 36.75 39.0001 37.4216 39.0001 38.25V47.25C39.0001 48.0784 39.6717 48.75 40.5001 48.75ZM42.0001 39.75H48.0001V45.75H42.0001V39.75Z" fill="#E43E2E"/>
<path d="M55.5 48.75H64.5C65.3284 48.75 66 48.0784 66 47.25V38.25C66 37.4216 65.3284 36.75 64.5 36.75H55.5C54.6716 36.75 54 37.4216 54 38.25V47.25C54 48.0784 54.6716 48.75 55.5 48.75ZM57 39.75H63V45.75H57V39.75Z" fill="#E43E2E"/>
<path d="M25.4998 63.75H34.4998C35.3282 63.75 35.9998 63.0784 35.9998 62.25V53.25C35.9998 52.4216 35.3282 51.75 34.4998 51.75H25.4998C24.6714 51.75 23.9998 52.4216 23.9998 53.25V62.25C23.9998 63.0784 24.6714 63.75 25.4998 63.75ZM26.9998 54.75H32.9998V60.75H26.9998V54.75Z" fill="#E43E2E"/>
<path d="M40.5001 63.75H49.5001C50.3285 63.75 51.0001 63.0784 51.0001 62.25V53.25C51.0001 52.4216 50.3285 51.75 49.5001 51.75H40.5001C39.6717 51.75 39.0001 52.4216 39.0001 53.25V62.25C39.0001 63.0784 39.6717 63.75 40.5001 63.75ZM42.0001 54.75H48.0001V60.75H42.0001V54.75Z" fill="#E43E2E"/>
<path d="M55.5 63.75H64.5C65.3284 63.75 66 63.0784 66 62.25V53.25C66 52.4216 65.3284 51.75 64.5 51.75H55.5C54.6716 51.75 54 52.4216 54 53.25V62.25C54 63.0784 54.6716 63.75 55.5 63.75ZM57 54.75H63V60.75H57V54.75Z" fill="#E43E2E"/>
<path d="M7.49988 29.25H8.99988C9.82825 29.25 10.4999 29.9216 10.4999 30.75V32.25C10.4999 33.0784 9.82825 33.75 8.99988 33.75H7.49988C6.6715 33.75 5.99988 33.0784 5.99988 32.25V30.75C5.99988 29.9216 6.6715 29.25 7.49988 29.25Z" fill="#E43E2E"/>
<path d="M13.5001 29.25H15.0001C15.8285 29.25 16.5001 29.9216 16.5001 30.75V32.25C16.5001 33.0784 15.8285 33.75 15.0001 33.75H13.5001C12.6717 33.75 12.0001 33.0784 12.0001 32.25V30.75C12.0001 29.9216 12.6717 29.25 13.5001 29.25Z" fill="#E43E2E"/>
<path d="M7.49988 35.2502H8.99988C9.82825 35.2502 10.4999 35.9219 10.4999 36.7502V38.2502C10.4999 39.0786 9.82825 39.7502 8.99988 39.7502H7.49988C6.6715 39.7502 5.99988 39.0786 5.99988 38.2502V36.7502C5.99988 35.9219 6.6715 35.2502 7.49988 35.2502Z" fill="#E43E2E"/>
<path d="M13.5001 35.2502H15.0001C15.8285 35.2502 16.5001 35.9219 16.5001 36.7502V38.2502C16.5001 39.0786 15.8285 39.7502 15.0001 39.7502H13.5001C12.6717 39.7502 12.0001 39.0786 12.0001 38.2502V36.7502C12.0001 35.9219 12.6717 35.2502 13.5001 35.2502Z" fill="#E43E2E"/>
<path d="M7.49988 41.25H8.99988C9.82825 41.25 10.4999 41.9216 10.4999 42.75V44.25C10.4999 45.0784 9.82825 45.75 8.99988 45.75H7.49988C6.6715 45.75 5.99988 45.0784 5.99988 44.25V42.75C5.99988 41.9216 6.6715 41.25 7.49988 41.25Z" fill="#E43E2E"/>
<path d="M13.5001 41.25H15.0001C15.8285 41.25 16.5001 41.9216 16.5001 42.75V44.25C16.5001 45.0784 15.8285 45.75 15.0001 45.75H13.5001C12.6717 45.75 12.0001 45.0784 12.0001 44.25V42.75C12.0001 41.9216 12.6717 41.25 13.5001 41.25Z" fill="#E43E2E"/>
<path d="M7.49988 47.25H8.99988C9.82825 47.25 10.4999 47.9216 10.4999 48.75V50.25C10.4999 51.0784 9.82825 51.75 8.99988 51.75H7.49988C6.6715 51.75 5.99988 51.0784 5.99988 50.25V48.75C5.99988 47.9216 6.6715 47.25 7.49988 47.25Z" fill="#E43E2E"/>
<path d="M13.5001 47.25H15.0001C15.8285 47.25 16.5001 47.9216 16.5001 48.75V50.25C16.5001 51.0784 15.8285 51.75 15.0001 51.75H13.5001C12.6717 51.75 12.0001 51.0784 12.0001 50.25V48.75C12.0001 47.9216 12.6717 47.25 13.5001 47.25Z" fill="#E43E2E"/>
<path d="M7.49988 53.25H8.99988C9.82825 53.25 10.4999 53.9216 10.4999 54.75V56.25C10.4999 57.0784 9.82825 57.75 8.99988 57.75H7.49988C6.6715 57.75 5.99988 57.0784 5.99988 56.25V54.75C5.99988 53.9216 6.6715 53.25 7.49988 53.25Z" fill="#E43E2E"/>
<path d="M13.5001 53.25H15.0001C15.8285 53.25 16.5001 53.9216 16.5001 54.75V56.25C16.5001 57.0784 15.8285 57.75 15.0001 57.75H13.5001C12.6717 57.75 12.0001 57.0784 12.0001 56.25V54.75C12.0001 53.9216 12.6717 53.25 13.5001 53.25Z" fill="#E43E2E"/>
<path d="M7.49988 59.25H8.99988C9.82825 59.25 10.4999 59.9216 10.4999 60.75V62.25C10.4999 63.0784 9.82825 63.75 8.99988 63.75H7.49988C6.6715 63.75 5.99988 63.0784 5.99988 62.25V60.75C5.99988 59.9216 6.6715 59.25 7.49988 59.25Z" fill="#E43E2E"/>
<path d="M13.5001 59.25H15.0001C15.8285 59.25 16.5001 59.9216 16.5001 60.75V62.25C16.5001 63.0784 15.8285 63.75 15.0001 63.75H13.5001C12.6717 63.75 12.0001 63.0784 12.0001 62.25V60.75C12.0001 59.9216 12.6717 59.25 13.5001 59.25Z" fill="#E43E2E"/>
<path d="M7.49988 65.25H8.99988C9.82825 65.25 10.4999 65.9216 10.4999 66.75V68.25C10.4999 69.0784 9.82825 69.75 8.99988 69.75H7.49988C6.6715 69.75 5.99988 69.0784 5.99988 68.25V66.75C5.99988 65.9216 6.6715 65.25 7.49988 65.25Z" fill="#E43E2E"/>
<path d="M13.5001 65.25H15.0001C15.8285 65.25 16.5001 65.9216 16.5001 66.75V68.25C16.5001 69.0784 15.8285 69.75 15.0001 69.75H13.5001C12.6717 69.75 12.0001 69.0784 12.0001 68.25V66.75C12.0001 65.9216 12.6717 65.25 13.5001 65.25Z" fill="#E43E2E"/>
<path d="M7.49988 71.25H8.99988C9.82825 71.25 10.4999 71.9216 10.4999 72.75V74.25C10.4999 75.0784 9.82825 75.75 8.99988 75.75H7.49988C6.6715 75.75 5.99988 75.0784 5.99988 74.25V72.75C5.99988 71.9216 6.6715 71.25 7.49988 71.25Z" fill="#E43E2E"/>
<path d="M13.5001 71.25H15.0001C15.8285 71.25 16.5001 71.9216 16.5001 72.75V74.25C16.5001 75.0784 15.8285 75.75 15.0001 75.75H13.5001C12.6717 75.75 12.0001 75.0784 12.0001 74.25V72.75C12.0001 71.9216 12.6717 71.25 13.5001 71.25Z" fill="#E43E2E"/>
<path d="M7.49988 77.25H8.99988C9.82825 77.25 10.4999 77.9216 10.4999 78.75V80.25C10.4999 81.0784 9.82825 81.75 8.99988 81.75H7.49988C6.6715 81.75 5.99988 81.0784 5.99988 80.25V78.75C5.99988 77.9216 6.6715 77.25 7.49988 77.25Z" fill="#E43E2E"/>
<path d="M13.5001 77.25H15.0001C15.8285 77.25 16.5001 77.9216 16.5001 78.75V80.25C16.5001 81.0784 15.8285 81.75 15.0001 81.75H13.5001C12.6717 81.75 12.0001 81.0784 12.0001 80.25V78.75C12.0001 77.9216 12.6717 77.25 13.5001 77.25Z" fill="#E43E2E"/>
<path d="M76.5002 29.25H82.5002C83.3286 29.25 84.0002 28.5784 84.0002 27.75V21.75C84.0002 20.9216 83.3286 20.25 82.5002 20.25H76.5002C75.6718 20.25 75.0002 20.9216 75.0002 21.75V27.75C75.0002 28.5784 75.6718 29.25 76.5002 29.25ZM78.0002 23.25H81.0002V26.25H78.0002V23.25Z" fill="#E43E2E"/>
<path d="M75.0002 39.7498C75.0002 40.5781 75.6718 41.2498 76.5002 41.2498H82.5002C83.3286 41.2498 84.0002 40.5781 84.0002 39.7498V33.7498C84.0002 32.9214 83.3286 32.2498 82.5002 32.2498H76.5002C75.6718 32.2498 75.0002 32.9214 75.0002 33.7498V39.7498ZM78.0002 35.2498H81.0002V38.2498H78.0002V35.2498Z" fill="#E43E2E"/>
<path d="M75.0002 51.7502C75.0002 52.5786 75.6718 53.2502 76.5002 53.2502H82.5002C83.3286 53.2502 84.0002 52.5786 84.0002 51.7502V45.7502C84.0002 44.9219 83.3286 44.2502 82.5002 44.2502H76.5002C75.6718 44.2502 75.0002 44.9219 75.0002 45.7502V51.7502ZM78.0002 47.2502H81.0002V50.2502H78.0002V47.2502Z" fill="#E43E2E"/>
<path d="M75.0002 63.75C75.0002 64.5784 75.6718 65.25 76.5002 65.25H82.5002C83.3286 65.25 84.0002 64.5784 84.0002 63.75V57.75C84.0002 56.9216 83.3286 56.25 82.5002 56.25H76.5002C75.6718 56.25 75.0002 56.9216 75.0002 57.75V63.75ZM78.0002 59.25H81.0002V62.25H78.0002V59.25Z" fill="#E43E2E"/>
<path d="M75.0002 75.7498C75.0002 76.5781 75.6718 77.2498 76.5002 77.2498H82.5002C83.3286 77.2498 84.0002 76.5781 84.0002 75.7498V69.7498C84.0002 68.9214 83.3286 68.2498 82.5002 68.2498H76.5002C75.6718 68.2498 75.0002 68.9214 75.0002 69.7498V75.7498ZM78.0002 71.2498H81.0002V74.2498H78.0002V71.2498Z" fill="#E43E2E"/>
</svg>
