<svg width="90" height="90" viewBox="0 0 90 90" fill="none" xmlns="http://www.w3.org/2000/svg">
<g clip-path="url(#clip0)">
<path d="M25.5747 10.5003L24.7048 11.7903L17.3999 22.5002H7.50001C4.18639 22.5002 1.50012 19.814 1.50012 16.5004C1.50012 13.1867 4.18639 10.5005 7.50001 10.5005C7.49965 10.2099 7.5146 9.91953 7.54501 9.63054C7.56522 9.37373 7.60038 9.11832 7.64995 8.86555C7.6677 8.74409 7.69284 8.62403 7.725 8.50556C7.75506 8.32556 7.815 8.14556 7.86 7.96556C7.91994 7.7555 7.995 7.56056 8.07006 7.36562C8.13 7.20057 8.19012 7.03569 8.265 6.87063C8.36994 6.64563 8.47505 6.42063 8.58 6.21075C8.59494 6.19581 8.61005 6.18069 8.61005 6.16575C8.85368 5.73544 9.12948 5.3243 9.43499 4.93582C9.56999 4.77077 9.70498 4.60588 9.85492 4.44083L9.94492 4.35083C10.0071 4.27349 10.0776 4.203 10.155 4.14077C10.2599 4.02071 10.365 3.93072 10.47 3.82578C10.6199 3.69078 10.77 3.57072 10.92 3.45084C10.9799 3.40584 11.055 3.3459 11.1149 3.3009C11.2499 3.19596 11.3999 3.09084 11.5649 2.9859C11.9662 2.70184 12.3992 2.46524 12.855 2.28085L13.5299 2.01085C13.7699 1.93579 14.01 1.86091 14.2499 1.80079L14.7899 1.6658C15.09 1.60585 15.3749 1.5758 15.675 1.54574C15.949 1.51533 16.2245 1.50039 16.5001 1.50074C21.469 1.50461 25.4961 5.53172 25.5 10.5007H25.5747V10.5003Z" fill="#BDC3C7"/>
<path d="M25.5747 10.5003L24.7048 11.7903L17.3999 22.5002H7.50001C4.18639 22.5002 1.50012 19.814 1.50012 16.5004C1.50012 13.1867 4.18639 10.5005 7.50001 10.5005C7.49965 10.2099 7.5146 9.91953 7.54501 9.63054C7.56522 9.37373 7.60038 9.11832 7.64995 8.86555C7.6677 8.74409 7.69284 8.62403 7.725 8.50556C7.75506 8.32556 7.815 8.14556 7.86 7.96556C7.91994 7.7555 7.995 7.56056 8.07006 7.36562C8.13 7.20057 8.19012 7.03569 8.265 6.87063C8.36994 6.64563 8.47505 6.42063 8.58 6.21075C8.59494 6.19581 8.61005 6.18069 8.61005 6.16575C8.85368 5.73544 9.12948 5.3243 9.43499 4.93582C9.56999 4.77077 9.70498 4.60588 9.85492 4.44083L9.94492 4.35083C10.0071 4.27349 10.0776 4.203 10.155 4.14077C10.2599 4.02071 10.365 3.93072 10.47 3.82578C10.6199 3.69078 10.77 3.57072 10.92 3.45084C10.9799 3.40584 11.055 3.3459 11.1149 3.3009C11.2499 3.19596 11.3999 3.09084 11.5649 2.9859C11.9764 2.71872 12.4078 2.48299 12.855 2.28085L13.5299 2.01085C13.7699 1.93579 14.01 1.86091 14.2499 1.80079L14.7899 1.6658C15.09 1.60585 15.3749 1.5758 15.675 1.54574C15.949 1.51533 16.2245 1.50039 16.5001 1.50074C21.469 1.50461 25.4961 5.53172 25.5 10.5007H25.5747V10.5003Z" fill="#FFADAD"/>
<path d="M24.7048 11.7903L17.3999 22.5002H7.5C4.18638 22.5002 1.50012 19.814 1.50012 16.5003C1.50012 13.1867 4.18638 10.5005 7.5 10.5005C7.49965 10.2099 7.51459 9.91951 7.545 9.63053C7.56522 9.37372 7.60038 9.11831 7.64994 8.86554C7.6677 8.74407 7.69284 8.62402 7.725 8.50554C7.75506 8.32554 7.815 8.14554 7.86 7.96555C7.91994 7.75549 7.995 7.56055 8.07006 7.36561C8.13 7.20055 8.19012 7.03567 8.265 6.87062C8.36994 6.64562 8.47505 6.42062 8.57999 6.21074C8.59494 6.1958 8.61005 6.18068 8.61005 6.16574C8.85368 5.73543 9.12948 5.32428 9.43499 4.93581C9.56999 4.77075 9.70498 4.60587 9.85492 4.44081L9.94492 4.35082C10.0071 4.27347 10.0776 4.20298 10.155 4.14076C10.2599 4.0207 10.365 3.9307 10.47 3.82576C10.6199 3.69076 10.77 3.57071 10.92 3.45082C10.9799 3.40582 11.055 3.34588 11.1149 3.30088C11.2499 3.19594 11.3998 3.09083 11.5649 2.98589C11.9764 2.7187 12.4078 2.48298 12.855 2.28084L13.5299 2.01084C13.7699 1.93578 14.01 1.8609 14.2499 1.80078C18.219 2.82452 20.9944 6.40163 21 10.5006C22.3451 10.4984 23.6515 10.9531 24.7048 11.7903Z" fill="#FFADAD"/>
<path d="M30 60H24.0001V88.4997H30V60Z" fill="#FFADAD"/>
<path d="M42.9594 47.415C45.3094 45.1071 46.629 41.9487 46.6193 38.655C46.7089 32.0589 41.4403 26.6359 34.8444 26.5352H34.7994C36.1049 24.7846 36.8099 22.659 36.8094 20.4752C36.8823 14.981 32.4935 10.4647 26.9995 10.3803C26.2401 10.3752 25.4836 10.471 24.7495 10.6653C29.2312 11.7992 32.3548 15.8525 32.3094 20.4752C32.31 22.659 31.6049 24.7846 30.2994 26.5352H30.3444C36.9403 26.6361 42.209 32.0589 42.1193 38.655C42.129 41.9487 40.8094 45.107 38.4594 47.415C44.5222 49.5301 48.4165 55.4444 47.964 61.8496C47.5116 68.2548 42.8244 73.5629 36.5245 74.8047C37.2669 74.9378 38.0202 75.0032 38.7744 74.9997C46.4643 74.8831 52.6063 68.5598 52.4993 60.8698C52.5527 54.7972 48.7077 49.3742 42.9594 47.415Z" fill="#FFADAD"/>
<path d="M47.9996 60.8698C48.0748 67.6882 43.2309 73.5706 36.5247 74.8048C32.5127 74.1027 29.0216 71.6506 26.9997 68.1148C26.3789 69.1781 25.6225 70.1563 24.7498 71.0248C22.2312 73.5659 18.8026 74.9967 15.2248 74.9997C14.4705 75.003 13.7173 74.9378 12.9748 74.8048C6.67489 73.5629 1.98773 68.2549 1.53527 61.8496C1.08281 55.4444 4.97703 49.5301 11.0398 47.415C8.68985 45.1072 7.37027 41.9488 7.37994 38.655C7.29029 32.0589 12.5589 26.6359 19.1549 26.5352H19.1999C17.8944 24.7846 17.1893 22.6591 17.1898 20.4752C17.1445 15.8525 20.2681 11.7992 24.7498 10.6653C29.2314 11.7992 32.355 15.8525 32.3097 20.4752C32.3102 22.6591 31.6052 24.7846 30.2997 26.5352H30.3447C36.9406 26.6361 42.2092 32.0589 42.1196 38.655C42.1293 41.9488 40.8097 45.107 38.4597 47.415C44.208 49.3742 48.053 54.7972 47.9996 60.8698Z" fill="#FFADAD"/>
<path d="M88.4989 30.0001C88.4994 31.5914 87.8673 33.1179 86.742 34.2433C85.6166 35.3686 84.0904 36.0005 82.4988 36.0002H64.499C61.1854 36.0002 58.4991 33.3139 58.4991 30.0003C58.4991 26.6867 61.1854 24.0004 64.499 24.0004C64.5045 19.9014 67.2799 16.3243 71.249 15.3005C71.9823 15.1012 72.739 15.0003 73.4989 15.0005C78.4679 15.0044 82.495 19.0315 82.4988 24.0004C84.0904 23.9999 85.6166 24.632 86.742 25.7573C87.8675 26.8823 88.4994 28.4088 88.4989 30.0001Z" fill="#FFADAD"/>
<path d="M15.2308 76.4995C11.5831 76.4763 8.06624 75.1378 5.32619 72.7298C2.606 70.3293 0.803908 67.0588 0.227879 63.4771C0.0891886 62.6129 0.013076 61.74 0.000244141 60.865H3.00027C3.01311 61.5772 3.07586 62.2876 3.18836 62.9909C3.65189 65.8888 5.1084 68.5355 7.30863 70.4779C9.50043 72.4044 12.3129 73.477 15.231 73.4995V76.4995H15.2308Z" fill="#E43E2E"/>
<path d="M4.98454 71.5067C5.08702 71.4897 5.18651 71.4584 5.2802 71.4137C5.37231 71.3846 5.45914 71.341 5.53771 71.2847C5.61963 71.226 5.69715 71.1617 5.76974 71.0919C6.03605 70.8071 6.19742 70.4403 6.22747 70.0514C6.23943 69.8644 6.21693 69.6768 6.16103 69.4979C5.98455 68.9776 5.52963 68.6016 4.98559 68.526C4.79065 68.5072 4.59396 68.5209 4.40341 68.5661C4.21005 68.6062 4.02566 68.6809 3.85885 68.7869C3.52715 69.0076 3.30391 69.3578 3.24362 69.7517C3.20055 70.1796 3.32694 70.6071 3.59535 70.943C3.8766 71.2643 4.26595 71.4714 4.68958 71.525L4.98454 71.5067Z" fill="#E43E2E"/>
<path d="M88.4994 70.4997C89.3278 70.4997 89.9993 69.8282 89.9993 68.9998C89.9993 68.1713 89.3276 67.4998 88.4994 67.4998H86.9994C86.9994 66.6714 86.328 65.9999 85.4995 65.9999C84.6711 65.9999 83.9996 66.6716 83.9996 67.4998H59.9997V65.9999C59.9997 65.1715 59.3282 64.5 58.4998 64.5C57.6713 64.5 56.9999 65.1715 56.9999 65.9999V67.4998H55.4999C54.6715 67.4998 54 68.1715 54 68.9998C54 69.828 54.6715 70.4997 55.4999 70.4997H56.9999V74.9997H55.4999C54.6715 74.9997 54 75.6711 54 76.4996C54 77.328 54.6715 77.9995 55.4999 77.9995H56.9999V79.4994H55.4999C54.6715 79.4994 54 80.1709 54 80.9994C54 81.8278 54.6715 82.4993 55.4999 82.4993H56.9999V86.9992H31.5V74.5892C33.7189 75.8395 36.2224 76.4975 38.7692 76.4994C47.2875 76.3767 54.0998 69.3839 53.9998 60.8652C54.0461 54.9427 50.7388 49.5032 45.459 46.819C47.1972 44.4527 48.1284 41.5901 48.1156 38.6541C48.1678 32.1743 43.6223 26.5655 37.2723 25.2743C38.8791 21.7309 38.6029 17.618 36.5367 14.3213C34.4704 11.0245 30.8896 8.98302 27.0001 8.88423C26.9556 8.88423 26.9127 8.89056 26.8684 8.89109C26.0697 3.7295 21.5968 -0.0597813 16.3737 0.00121423C11.1506 0.0622097 6.76699 3.95432 6.08883 9.13366C2.29041 9.86157 -0.331691 13.3585 0.0339302 17.2088C0.399552 21.0591 3.63266 24 7.50034 24.0002H16.2436C16.379 24.4316 16.5395 24.8547 16.7242 25.2672C10.3743 26.5629 5.83114 32.1738 5.8844 38.6543C5.87157 41.5903 6.80285 44.4529 8.54096 46.8192C3.26142 49.5034 -0.0458737 54.9427 0.000356361 60.865V60.8656C0.0131883 61.7404 0.0893008 62.6134 0.227991 63.4771C0.310783 64.0229 0.427676 64.5631 0.578319 65.0941C0.673065 65.4989 0.937085 65.8435 1.30323 66.0402C1.66938 66.2369 2.1025 66.2669 2.49238 66.1224C3.22486 65.8426 3.64163 65.0683 3.472 64.3028C3.34878 63.8721 3.25404 63.4339 3.18812 62.9908C3.07579 62.2875 3.01287 61.5771 3.00003 60.865C2.93658 55.4382 6.36674 50.5848 11.5034 48.8331C11.9999 48.6695 12.3754 48.259 12.4942 47.7498C12.6131 47.2406 12.4579 46.7064 12.085 46.3399C10.0231 44.3158 8.86861 41.5432 8.88443 38.6539C8.78634 32.9303 13.3128 28.1938 19.035 28.0324C19.6543 28.0871 20.2461 27.7665 20.5386 27.2179C20.7944 26.7137 20.7443 26.1085 20.4091 25.6534C19.2973 24.1579 18.6954 22.3447 18.6922 20.4811C18.6191 15.8157 22.3347 11.9706 26.9999 11.8841C31.6653 11.9706 35.3809 15.8156 35.3076 20.4811C35.3044 22.3447 34.7026 24.1579 33.5908 25.6534C33.2624 26.1124 33.2213 26.7172 33.4846 27.2165C33.7497 27.7229 34.2746 28.0396 34.8462 28.0382C40.6098 28.1419 45.2028 32.8899 45.1154 38.6539C45.1312 41.5432 43.9765 44.3158 41.9148 46.3399C41.5418 46.7064 41.3868 47.2406 41.5056 47.7498C41.6244 48.259 41.9999 48.6695 42.4965 48.8331C48.2575 50.8475 51.7694 56.6767 50.8574 62.7113C49.9456 68.7458 44.8683 73.2772 38.7692 73.4994C34.6794 73.4843 30.8783 71.3888 28.6821 67.9384L38.5604 58.06C39.1371 57.4727 39.1327 56.5305 38.5509 55.9485C37.9689 55.3665 37.0267 55.3623 36.4395 55.939L28.5 63.8783V48.6206L35.5604 41.5602C36.1397 40.9735 36.1369 40.029 35.5537 39.4458C34.9706 38.8627 34.0262 38.8597 33.4392 39.4391L28.4998 44.3785V37.4997C28.4998 36.6713 27.8284 35.9998 26.9999 35.9998C26.1715 35.9998 25.5 36.6715 25.5 37.4997V44.3785L20.5606 39.4391C19.9738 38.8597 19.0294 38.8627 18.4461 39.4458C17.8629 40.0288 17.8601 40.9735 18.4395 41.5602L25.4998 48.6208V63.8784L17.5604 55.939C16.9736 55.3596 16.0292 55.3626 15.4459 55.9457C14.8627 56.5287 14.8599 57.4734 15.4392 58.0601L25.3175 67.9384C22.0971 73.067 15.534 74.9513 10.0834 72.3123C9.36378 72.0158 8.53516 72.2812 8.12172 72.9406C7.90305 73.2972 7.85032 73.7314 7.97741 74.1299C8.1045 74.5286 8.39893 74.852 8.78371 75.016C10.7944 75.9868 12.9975 76.4936 15.2304 76.4992H15.2306C17.7775 76.4973 20.2809 75.8395 22.4998 74.589V86.9991H1.50028C0.671834 86.9991 0.000356361 87.6707 0.000356361 88.499C0.000356361 89.3274 0.67201 89.9989 1.50028 89.9989H88.4994C89.3278 89.9989 89.9993 89.3274 89.9993 88.499C89.9993 87.6705 89.3276 86.9991 88.4994 86.9991H86.9994V82.4991H88.4994C89.3278 82.4991 89.9993 81.8276 89.9993 80.9992C89.9993 80.1707 89.3276 79.4993 88.4994 79.4993H86.9994V77.9993H88.4994C89.3278 77.9993 89.9993 77.3279 89.9993 76.4994C89.9993 75.671 89.3276 74.9995 88.4994 74.9995H86.9994V70.4995H88.4994V70.4997ZM15.6924 20.4816C15.6924 20.6558 15.7121 20.827 15.7198 21.0002H7.50034C5.01517 21.0002 3.00039 18.9854 3.00039 16.5002C3.00039 14.0151 5.01517 12.0003 7.50034 12.0003C7.89813 12.0005 8.27975 11.8424 8.56117 11.561C8.84259 11.2796 9.00044 10.8981 9.00044 10.5002C8.99288 6.58556 12.0026 3.32626 15.9054 3.02286C19.8082 2.71929 23.2857 5.47429 23.8833 9.34302C18.991 10.8375 15.6606 15.3666 15.6924 20.4816ZM25.5 86.9996V72.3844C26.0375 71.8838 26.5388 71.3456 26.9999 70.7737C27.4612 71.3456 27.9623 71.8838 28.4998 72.3842V86.9996H25.5ZM83.9994 86.9996H59.9997V82.4996H83.9994V86.9996ZM83.9994 79.4996H59.9997V77.9997H83.9994V79.4996ZM83.9994 74.9997H59.9997V70.4997H83.9994V74.9997Z" fill="#E43E2E"/>
<path d="M83.9112 22.6336C83.2247 17.4077 78.7707 13.5005 73.4999 13.5005C68.2292 13.5005 63.7751 17.4077 63.0887 22.6336C59.2902 23.3615 56.6681 26.8585 57.0336 30.7088C57.399 34.559 60.6323 37.5 64.5 37.5002H82.4998C86.3673 37.5 89.6006 34.559 89.9662 30.7088C90.3317 26.8585 87.7096 23.3615 83.9112 22.6336ZM82.4998 34.5002H64.5C62.0148 34.5002 60 32.4854 60 30.0002C60 27.5149 62.0148 25.5003 64.5 25.5003C64.8978 25.5004 65.2794 25.3424 65.5608 25.061C65.8421 24.7797 66.0001 24.3981 66.0001 24.0002C66.0001 19.8581 69.358 16.5002 73.5001 16.5002C77.6422 16.5002 81.0001 19.8581 81.0001 24.0002C80.9999 24.3979 81.1579 24.7796 81.4393 25.061C81.7206 25.3422 82.1022 25.5003 82.5002 25.5003C84.9853 25.5003 87.0001 27.515 87.0001 30.0002C86.9998 32.4856 84.9852 34.5002 82.4998 34.5002Z" fill="#E43E2E"/>
</g>
<defs>
<clipPath id="clip0">
<rect width="90" height="90" fill="white"/>
</clipPath>
</defs>
</svg>
