<svg width="90" height="90" viewBox="0 0 90 90" fill="none" xmlns="http://www.w3.org/2000/svg">
<circle cx="45" cy="29" r="21" fill="#FFADAD"/>
<path d="M74.0078 29.1797C74.0078 13.0902 60.9966 0 45.0039 0C29.0112 0 16 13.0902 16 29.1797C16 44.2838 27.6057 56.7258 42.3672 58.0627V87.3633C42.3672 88.8195 43.5477 90 45.0039 90V90C46.4601 90 47.6406 88.8195 47.6406 87.3633V58.0627C62.4021 56.7258 74.0078 44.2838 74.0078 29.1797ZM45.0039 52.9102C31.9192 52.9102 21.2734 42.2644 21.2734 29.1797C21.2734 15.9975 31.9192 5.27344 45.0039 5.27344C58.0886 5.27344 68.7344 15.9975 68.7344 29.1797C68.7344 42.2644 58.0886 52.9102 45.0039 52.9102Z" fill="#E43E2E"/>
<path d="M45 29.0848L38.4315 18H34V40H38.4V26.5777L45 37.7152L51.6 26.5777V40H56V18H51.5685L45 29.0848Z" fill="white"/>
</svg>
