<svg width="90" height="90" viewBox="0 0 90 90" fill="none" xmlns="http://www.w3.org/2000/svg">
<path d="M81.7028 7.65967V79.3365C81.1396 79.926 80.564 80.5015 79.9746 81.0639H10.0282C9.43644 80.5015 8.86089 79.926 8.29849 79.3342V7.65967H81.7028Z" fill="#FFADAD"/>
<path d="M72.1283 17.2341V70.2127C71.712 70.6484 71.2866 71.0738 70.8509 71.4894H19.1515C18.714 71.0738 18.2886 70.6484 17.873 70.2109V17.2341H72.1283Z" fill="white"/>
<path d="M72.5649 72.5656H35.2732V68.8927H68.892V20.7568H20.7561V68.8927H28.4163V72.5656H17.0826V17.0833H72.5649V72.5656Z" fill="#E43E2E"/>
<path d="M42.9876 18.9199H46.6611V44.8243H42.9876V18.9199Z" fill="#E43E2E"/>
<path d="M35.2728 42.9875H44.824V46.6611H35.2728V42.9875Z" fill="#E43E2E"/>
<path d="M18.9189 42.9875H28.4159V46.6611H18.9189V42.9875Z" fill="#E43E2E"/>
<path d="M61.1775 42.9875H70.7281V46.6611H61.1775V42.9875Z" fill="#E43E2E"/>
<path d="M44.8226 42.9875H54.3196V46.6611H44.8226V42.9875Z" fill="#E43E2E"/>
<path d="M42.9876 61.1782H46.6611V70.7295H42.9876V61.1782Z" fill="#E43E2E"/>
<path d="M42.9872 44.8237H46.6601V54.3214H42.9872V44.8237Z" fill="#E43E2E"/>
<rect x="9.02127" y="9.02124" width="71.9574" height="71.9574" stroke="#E43E2E" stroke-width="4"/>
</svg>
