<svg width="22" height="22" viewBox="0 0 22 22" fill="none" xmlns="http://www.w3.org/2000/svg">
<g clip-path="url(#clip0)">
<path d="M16.3931 0.375501L13.6464 0.371094C10.5605 0.371094 8.56627 2.41712 8.56627 5.58389V7.98735H5.80455C5.5659 7.98735 5.37265 8.18082 5.37265 8.41947V11.9018C5.37265 12.1404 5.56612 12.3337 5.80455 12.3337H8.56627V21.1207C8.56627 21.3594 8.75953 21.5526 8.99817 21.5526H12.6014C12.8401 21.5526 13.0333 21.3591 13.0333 21.1207V12.3337H16.2624C16.5011 12.3337 16.6943 12.1404 16.6943 11.9018L16.6957 8.41947C16.6957 8.30488 16.65 8.19514 16.5692 8.11405C16.4883 8.03296 16.3781 7.98735 16.2635 7.98735H13.0333V5.94991C13.0333 4.97064 13.2667 4.47351 14.5423 4.47351L16.3927 4.47285C16.6311 4.47285 16.8243 4.27937 16.8243 4.04094V0.807404C16.8243 0.569196 16.6313 0.375942 16.3931 0.375501Z" fill="white"/>
</g>
<defs>
<clipPath id="clip0">
<rect x="0.507111" y="0.371094" width="21.1815" height="21.1815" fill="white"/>
</clipPath>
</defs>
</svg>
