<svg width="21" height="21" viewBox="0 0 21 21" fill="none" xmlns="http://www.w3.org/2000/svg">
<g clip-path="url(#clip0)">
<path d="M15.8269 0.419803L13.1621 0.415527C10.1684 0.415527 8.23371 2.40047 8.23371 5.47269V7.80438H5.55444C5.32292 7.80438 5.13544 7.99208 5.13544 8.2236V11.602C5.13544 11.8335 5.32313 12.021 5.55444 12.021H8.23371V20.5456C8.23371 20.7771 8.42119 20.9646 8.65271 20.9646H12.1484C12.3799 20.9646 12.5674 20.7769 12.5674 20.5456V12.021H15.7001C15.9316 12.021 16.1191 11.8335 16.1191 11.602L16.1204 8.2236C16.1204 8.11244 16.0761 8.00597 15.9977 7.9273C15.9192 7.84863 15.8123 7.80438 15.7012 7.80438H12.5674V5.82778C12.5674 4.87774 12.7938 4.39546 14.0313 4.39546L15.8264 4.39481C16.0577 4.39481 16.2452 4.20712 16.2452 3.97581V0.83881C16.2452 0.607715 16.0579 0.42023 15.8269 0.419803Z" fill="#E43E2E"/>
</g>
<defs>
<clipPath id="clip0">
<rect x="0.415527" y="0.415527" width="20.5491" height="20.5491" fill="white"/>
</clipPath>
</defs>
</svg>
