<svg width="22" height="21" viewBox="0 0 22 21" fill="none" xmlns="http://www.w3.org/2000/svg">
<g clip-path="url(#clip0)">
<path d="M15.4747 0.416016H6.05054C2.98336 0.416016 0.488098 2.91128 0.488098 5.97846V15.4028C0.488098 18.4698 2.98336 20.9651 6.05054 20.9651H15.4749C18.5419 20.9651 21.0372 18.4698 21.0372 15.4028V5.97846C21.0372 2.91128 18.5419 0.416016 15.4747 0.416016V0.416016ZM19.8325 15.4028C19.8325 17.8056 17.8776 19.7604 15.4747 19.7604H6.05054C3.64762 19.7604 1.69277 17.8056 1.69277 15.4028V5.97846C1.69277 3.57554 3.64762 1.62069 6.05054 1.62069H15.4749C17.8776 1.62069 19.8325 3.57554 19.8325 5.97846V15.4028Z" fill="#E43E2E"/>
<path d="M10.7627 5.07178C7.66448 5.07178 5.14398 7.59228 5.14398 10.6905C5.14398 13.7887 7.66448 16.3092 10.7627 16.3092C13.8609 16.3092 16.3814 13.7887 16.3814 10.6905C16.3814 7.59228 13.8609 5.07178 10.7627 5.07178V5.07178ZM10.7627 15.1046C8.3289 15.1046 6.34866 13.1245 6.34866 10.6905C6.34866 8.2567 8.3289 6.27645 10.7627 6.27645C13.1967 6.27645 15.1768 8.2567 15.1768 10.6905C15.1768 13.1245 13.1967 15.1046 10.7627 15.1046V15.1046Z" fill="#E43E2E"/>
<path d="M16.5154 3.07568C15.5998 3.07568 14.8551 3.82053 14.8551 4.73595C14.8551 5.65153 15.5998 6.39638 16.5154 6.39638C17.4309 6.39638 18.1758 5.65153 18.1758 4.73595C18.1758 3.82037 17.4309 3.07568 16.5154 3.07568ZM16.5154 5.19155C16.2642 5.19155 16.0598 4.98711 16.0598 4.73595C16.0598 4.48464 16.2642 4.28036 16.5154 4.28036C16.7667 4.28036 16.9711 4.48464 16.9711 4.73595C16.9711 4.98711 16.7667 5.19155 16.5154 5.19155Z" fill="#E43E2E"/>
</g>
<defs>
<clipPath id="clip0">
<rect x="0.488098" y="0.416016" width="20.5491" height="20.5491" fill="white"/>
</clipPath>
</defs>
</svg>
