<svg width="23" height="22" viewBox="0 0 23 22" fill="none" xmlns="http://www.w3.org/2000/svg">
<g clip-path="url(#clip0)">
<path d="M16.3471 0.371094H6.63287C3.47129 0.371094 0.899231 2.94315 0.899231 6.10473V15.8191C0.899231 18.9805 3.47129 21.5526 6.63287 21.5526H16.3472C19.5087 21.5526 22.0807 18.9805 22.0807 15.8191V6.10473C22.0807 2.94315 19.5087 0.371094 16.3471 0.371094V0.371094ZM20.839 15.8191C20.839 18.2958 18.824 20.3108 16.3471 20.3108H6.63287C4.15599 20.3108 2.14098 18.2958 2.14098 15.8191V6.10473C2.14098 3.62786 4.15599 1.61284 6.63287 1.61284H16.3472C18.824 1.61284 20.839 3.62786 20.839 6.10473V15.8191Z" fill="white"/>
<path d="M11.4902 5.17041C8.29659 5.17041 5.69852 7.76848 5.69852 10.9621C5.69852 14.1556 8.29659 16.7537 11.4902 16.7537C14.6837 16.7537 17.2818 14.1556 17.2818 10.9621C17.2818 7.76848 14.6837 5.17041 11.4902 5.17041V5.17041ZM11.4902 15.512C8.98146 15.512 6.94027 13.4709 6.94027 10.9621C6.94027 8.45335 8.98146 6.41216 11.4902 6.41216C13.999 6.41216 16.0401 8.45335 16.0401 10.9621C16.0401 13.4709 13.999 15.512 11.4902 15.512V15.512Z" fill="white"/>
<path d="M17.4195 3.11279C16.4757 3.11279 15.7081 3.88056 15.7081 4.82416C15.7081 5.76791 16.4757 6.53568 17.4195 6.53568C18.3632 6.53568 19.131 5.76791 19.131 4.82416C19.131 3.8804 18.3632 3.11279 17.4195 3.11279ZM17.4195 5.29377C17.1606 5.29377 16.9499 5.08304 16.9499 4.82416C16.9499 4.56511 17.1606 4.35454 17.4195 4.35454C17.6785 4.35454 17.8893 4.56511 17.8893 4.82416C17.8893 5.08304 17.6785 5.29377 17.4195 5.29377Z" fill="white"/>
</g>
<defs>
<clipPath id="clip0">
<rect x="0.899231" y="0.371094" width="21.1815" height="21.1815" fill="white"/>
</clipPath>
</defs>
</svg>
