<svg width="22" height="21" viewBox="0 0 22 21" fill="none" xmlns="http://www.w3.org/2000/svg">
<g clip-path="url(#clip0)">
<path d="M17.1032 19.8806C16.9427 19.8806 16.7833 19.8331 16.6465 19.7404L11.4797 16.2356L8.70845 18.2296C8.49111 18.3859 8.21097 18.4253 7.9586 18.3351C7.70655 18.2446 7.51513 18.0358 7.44681 17.777L6.05534 12.5037L1.08348 10.6026C0.770485 10.4829 0.562904 10.1834 0.560627 9.84832C0.558349 9.51319 0.761809 9.21093 1.07329 9.08697L19.9781 1.5646C20.0639 1.52816 20.1547 1.50712 20.2462 1.50148C20.279 1.49953 20.3118 1.49953 20.3445 1.50137C20.5341 1.51265 20.7203 1.58987 20.8656 1.73238C20.8807 1.74713 20.895 1.7622 20.9085 1.77793C21.0289 1.91545 21.0951 2.08312 21.1076 2.25393C21.1106 2.29688 21.1104 2.34037 21.1066 2.38386C21.104 2.41488 21.0995 2.44579 21.0932 2.47648L17.9022 19.2195C17.8509 19.4885 17.6678 19.7136 17.4149 19.8185C17.3146 19.8601 17.2086 19.8806 17.1032 19.8806ZM11.9333 14.5776L16.5358 17.6994L19.0187 4.67148L10.051 13.3007L11.9116 14.5629C11.9191 14.5676 11.9263 14.5726 11.9333 14.5776ZM8.10198 13.8833L8.71821 16.2184L10.0459 15.263L8.30739 14.0837C8.22659 14.029 8.1574 13.9609 8.10198 13.8833ZM3.61209 9.8276L7.026 11.1328C7.27057 11.2263 7.45516 11.432 7.52196 11.6851L7.95491 13.3259C7.97476 13.1366 8.06055 12.9586 8.19991 12.8244L16.7449 4.60207L3.61209 9.8276Z" fill="#212D39"/>
</g>
<defs>
<clipPath id="clip0">
<rect x="0.560608" y="0.416016" width="20.5491" height="20.5491" fill="white"/>
</clipPath>
</defs>
</svg>
