<svg width="185" height="87" viewBox="0 0 185 87" fill="none" xmlns="http://www.w3.org/2000/svg">
<path d="M2.00055 17.3053L1.3207 15.9682L0.500549 16.3853V17.3053H2.00055ZM32.1915 1.95459L32.9543 0.663016L32.2455 0.244395L31.5117 0.617502L32.1915 1.95459ZM53.4341 14.5001L54.9341 14.4898L54.9283 13.6405L54.1969 13.2086L53.4341 14.5001ZM53.6676 48.3964L54.3542 49.7301L55.1739 49.308L55.1675 48.3861L53.6676 48.3964ZM20.3845 84.8991L19.6544 86.2094L19.6544 86.2094L20.3845 84.8991ZM3.03858 75.2347L3.76865 73.9244L3.76864 73.9244L3.03858 75.2347ZM2.6804 18.6424L32.8714 3.29168L31.5117 0.617502L1.3207 15.9682L2.6804 18.6424ZM31.4287 3.24616L52.6714 15.7917L54.1969 13.2086L32.9543 0.663016L31.4287 3.24616ZM51.9342 14.5105L52.1676 48.4068L55.1675 48.3861L54.9341 14.4898L51.9342 14.5105ZM52.9809 47.0628L22.7121 62.6473L24.0854 65.3146L54.3542 49.7301L52.9809 47.0628ZM21.8988 63.981V83.1348H24.8988V63.981H21.8988ZM21.1146 83.5887L3.76865 73.9244L2.30852 76.545L19.6544 86.2094L21.1146 83.5887ZM0.500549 17.3053V51.5133H3.50055V17.3053H0.500549ZM0.500549 51.5133V73.4704H3.50055V51.5133H0.500549ZM24.1539 62.6849L2.75569 50.2173L1.24541 52.8094L22.6436 65.277L24.1539 62.6849ZM2.6776 52.8519L24.1288 42.0014L22.7747 39.3244L1.3235 50.1748L2.6776 52.8519ZM24.1288 42.0014L33.1798 37.4232L31.8257 34.7462L22.7747 39.3244L24.1288 42.0014ZM31.7485 37.3813L52.9133 49.693L54.4218 47.0999L33.257 34.7881L31.7485 37.3813ZM34.0027 36.071L33.9025 25.0839L30.9026 25.1113L31.0028 36.0984L34.0027 36.071ZM33.9025 25.0839L33.6915 1.94091L30.6916 1.96827L30.9026 25.1113L33.9025 25.0839ZM52.7592 13.1606L31.7276 23.758L33.0776 26.4371L54.1091 15.8397L52.7592 13.1606ZM1.25098 18.6046L22.727 30.9943L24.2262 28.3957L2.75012 16.0061L1.25098 18.6046ZM24.1634 31.0285L33.0894 26.4311L31.7157 23.7641L22.7898 28.3615L24.1634 31.0285ZM21.9766 29.6916L21.9517 40.6595L24.9517 40.6663L24.9766 29.6984L21.9766 29.6916ZM21.9517 40.6595L21.8988 63.9776L24.8988 63.9844L24.9517 40.6663L21.9517 40.6595ZM3.76864 73.9244C3.60185 73.8314 3.50055 73.6572 3.50055 73.4704H0.500549C0.500549 74.7481 1.19348 75.9238 2.30852 76.545L3.76864 73.9244ZM21.8988 83.1348C21.8988 83.5266 21.4712 83.7874 21.1146 83.5887L19.6544 86.2094C21.999 87.5157 24.8988 85.829 24.8988 83.1348H21.8988Z" fill="white"/>
<path d="M69.3157 34.0282H76.3209C77.5735 34.0282 78.6649 34.3055 79.5954 34.8602C80.5259 35.397 81.2326 36.1217 81.7158 37.0343C82.1989 37.9289 82.4404 38.8862 82.4404 39.9062C82.4404 40.9261 82.1989 41.8744 81.7158 42.7512C81.2326 43.6101 80.5259 44.3079 79.5954 44.8447C78.6649 45.3636 77.5556 45.6231 76.2672 45.6231H72.4828V52.2794H69.3157V34.0282ZM75.9183 42.9122C77.0098 42.9122 77.8329 42.617 78.3876 42.0265C78.9602 41.436 79.2465 40.7203 79.2465 39.8793C79.2465 39.0025 78.9512 38.2689 78.3608 37.6784C77.7703 37.088 76.983 36.7927 75.9988 36.7927H72.4828V42.9122H75.9183Z" fill="white"/>
<path d="M86.323 37.8126C85.7683 37.8126 85.321 37.6516 84.981 37.3295C84.6589 36.9895 84.4979 36.569 84.4979 36.068C84.4979 35.567 84.6589 35.1555 84.981 34.8334C85.321 34.4934 85.7683 34.3234 86.323 34.3234C86.8777 34.3234 87.3161 34.4934 87.6382 34.8334C87.9781 35.1734 88.1481 35.5939 88.1481 36.0949C88.1481 36.578 87.9781 36.9895 87.6382 37.3295C87.2982 37.6516 86.8598 37.8126 86.323 37.8126ZM84.8468 40.3088H87.7724V52.2794H84.8468V40.3088Z" fill="white"/>
<path d="M96.8793 52.6283C95.6447 52.6283 94.5353 52.3599 93.5512 51.8231C92.5849 51.2863 91.8244 50.5348 91.2698 49.5686C90.733 48.6023 90.4646 47.5108 90.4646 46.2941C90.4646 45.0773 90.733 43.9948 91.2698 43.0464C91.8244 42.0802 92.5849 41.3287 93.5512 40.7919C94.5353 40.2551 95.6447 39.9867 96.8793 39.9867C98.114 39.9867 99.2233 40.2551 100.207 40.7919C101.192 41.3287 101.952 42.0802 102.489 43.0464C103.044 43.9948 103.321 45.0773 103.321 46.2941C103.321 47.5108 103.044 48.6023 102.489 49.5686C101.952 50.5348 101.192 51.2863 100.207 51.8231C99.2233 52.3599 98.114 52.6283 96.8793 52.6283ZM96.8793 50.0248C97.9171 50.0248 98.7492 49.6849 99.3754 49.0049C100.02 48.3071 100.342 47.4035 100.342 46.2941C100.342 45.1847 100.02 44.29 99.3754 43.6101C98.7492 42.9122 97.9171 42.5633 96.8793 42.5633C95.8594 42.5633 95.0274 42.9122 94.3832 43.6101C93.739 44.3079 93.417 45.2026 93.417 46.2941C93.417 47.3856 93.739 48.2802 94.3832 48.9781C95.0274 49.6759 95.8594 50.0248 96.8793 50.0248Z" fill="white"/>
<path d="M112.602 39.9867C113.962 39.9867 114.999 40.4072 115.715 41.2482C116.449 42.0712 116.816 43.2522 116.816 44.791V52.2794H113.89V45.0594C113.89 43.4311 113.21 42.617 111.85 42.617C110.956 42.617 110.24 42.9033 109.703 43.4759C109.184 44.0485 108.925 44.791 108.925 45.7036V52.2794H105.999V40.3088H107.985L108.576 42.1876C109.005 41.5255 109.551 40.9976 110.213 40.604C110.893 40.1924 111.689 39.9867 112.602 39.9867Z" fill="white"/>
<path d="M125.548 39.9867C127.23 39.9867 128.555 40.5145 129.521 41.5702C130.505 42.6259 130.997 44.0574 130.997 45.8646C130.997 46.1509 130.961 46.6162 130.89 47.2603H122.301C122.48 48.2087 122.909 48.9423 123.589 49.4612C124.287 49.9622 125.128 50.2127 126.112 50.2127C126.774 50.2127 127.356 50.1233 127.857 49.9443C128.376 49.7475 128.85 49.4612 129.279 49.0854L130.514 50.9642C129.816 51.5189 129.091 51.9394 128.34 52.2257C127.588 52.4941 126.756 52.6283 125.844 52.6283C124.573 52.6283 123.446 52.3599 122.462 51.8231C121.496 51.2863 120.735 50.5348 120.18 49.5686C119.644 48.6023 119.375 47.5019 119.375 46.2672C119.375 45.1042 119.635 44.0485 120.154 43.1001C120.69 42.1339 121.424 41.3734 122.354 40.8187C123.303 40.264 124.367 39.9867 125.548 39.9867ZM125.495 42.3754C124.69 42.3754 124.001 42.6349 123.428 43.1538C122.855 43.6548 122.48 44.3616 122.301 45.2742H128.232C128.197 44.3437 127.928 43.628 127.427 43.127C126.926 42.6259 126.282 42.3754 125.495 42.3754Z" fill="white"/>
<path d="M139.611 40.0404C140.399 40.0404 141.088 40.2103 141.678 40.5503L140.926 43.0196C140.425 42.8407 139.907 42.7512 139.37 42.7512C138.511 42.7512 137.822 43.0196 137.303 43.5564C136.784 44.0932 136.525 44.8268 136.525 45.7573V52.2794H133.599V40.3088H135.585L136.149 42.0802C136.489 41.4181 136.954 40.9171 137.545 40.5772C138.135 40.2193 138.824 40.0404 139.611 40.0404Z" fill="white"/>
<path d="M147.107 52.5478C145.389 52.5478 143.841 52.1094 142.463 51.2326L143.617 49.166C144.673 49.828 145.765 50.159 146.892 50.159C147.429 50.159 147.858 50.0517 148.18 49.837C148.502 49.6043 148.663 49.3002 148.663 48.9244C148.663 48.5307 148.475 48.2176 148.1 47.985C147.724 47.7345 147.142 47.4571 146.355 47.153C145.281 46.7414 144.449 46.2583 143.859 45.7036C143.268 45.131 142.973 44.3884 142.973 43.4759C142.973 42.4202 143.376 41.5971 144.181 41.0066C145.004 40.4161 146.015 40.1209 147.214 40.1209C148.592 40.1209 149.898 40.4787 151.133 41.1945L150.113 43.1538C149.218 42.6886 148.332 42.456 147.456 42.456C146.955 42.456 146.543 42.5365 146.221 42.6975C145.917 42.8586 145.765 43.118 145.765 43.4759C145.765 43.8337 145.944 44.1469 146.301 44.4153C146.677 44.6658 147.223 44.9163 147.939 45.1668C149.102 45.5962 149.987 46.0972 150.596 46.6698C151.222 47.2424 151.535 47.9939 151.535 48.9244C151.535 50.0338 151.124 50.9195 150.301 51.5816C149.495 52.2257 148.431 52.5478 147.107 52.5478Z" fill="white"/>
<path d="M164.672 52.1184V52.2794H161.29L156.995 47.1798V52.2794H154.07V32.9546H156.995V45.0594L160.968 40.3088H164.269V40.443L159.518 46.1062L164.672 52.1184Z" fill="white"/>
<path d="M168.023 37.8126C167.468 37.8126 167.021 37.6516 166.681 37.3295C166.358 36.9895 166.197 36.569 166.197 36.068C166.197 35.567 166.358 35.1555 166.681 34.8334C167.021 34.4934 167.468 34.3234 168.023 34.3234C168.577 34.3234 169.016 34.4934 169.338 34.8334C169.678 35.1734 169.848 35.5939 169.848 36.0949C169.848 36.578 169.678 36.9895 169.338 37.3295C168.998 37.6516 168.559 37.8126 168.023 37.8126ZM166.546 40.3088H169.472V52.2794H166.546V40.3088Z" fill="white"/>
<path d="M184.081 40.3088V40.3893L177.022 58.1842H173.909V58.1305L176.566 51.9842L171.439 40.3893V40.3088H174.607L177.156 46.4283C177.478 47.2156 177.747 47.985 177.962 48.7365C178.14 48.0566 178.382 47.2872 178.686 46.4283L181.021 40.3088H184.081Z" fill="white"/>
</svg>
