<svg width="179" height="85" viewBox="0 0 179 85" fill="none" xmlns="http://www.w3.org/2000/svg">
<path d="M2 16.8924L1.32015 15.5553L0.5 15.9723V16.8924H2ZM31.2896 2L32.0523 0.708426L31.3435 0.289805L30.6097 0.662912L31.2896 2ZM51.8979 14.171L53.3979 14.1606L53.392 13.3113L52.6607 12.8794L51.8979 14.171ZM52.1244 47.0552L52.811 48.3889L53.6307 47.9668L53.6244 47.0449L52.1244 47.0552ZM19.8351 82.468L19.105 83.7784H19.105L19.8351 82.468ZM3.00704 73.0922L3.73711 71.7818H3.7371L3.00704 73.0922ZM2.67985 18.2295L31.9694 3.33709L30.6097 0.662912L1.32015 15.5553L2.67985 18.2295ZM30.5268 3.29157L51.1351 15.4625L52.6607 12.8794L32.0523 0.708426L30.5268 3.29157ZM50.398 14.1813L50.6244 47.0656L53.6244 47.0449L53.3979 14.1606L50.398 14.1813ZM51.4378 45.7216L22.0727 60.8408L23.446 63.5081L52.811 48.3889L51.4378 45.7216ZM21.2593 62.1744V80.7564H24.2593V62.1744H21.2593ZM20.5651 81.1577L3.73711 71.7818L2.27698 74.4025L19.105 83.7784L20.5651 81.1577ZM0.5 16.8924V50.0791H3.5V16.8924H0.5ZM0.5 50.0791V71.3806H3.5V50.0791H0.5ZM23.5145 60.8784L2.75514 48.783L1.24486 51.3751L22.0042 63.4705L23.5145 60.8784ZM2.67705 51.4176L23.4877 40.8911L22.1336 38.2141L1.32295 48.7406L2.67705 51.4176ZM23.4877 40.8911L32.2686 36.4496L30.9145 33.7726L22.1336 38.2141L23.4877 40.8911ZM30.8373 36.4076L51.3702 48.3518L52.8786 45.7587L32.3457 33.8145L30.8373 36.4076ZM33.0914 35.0974L32.9942 24.4383L29.9944 24.4657L30.0916 35.1247L33.0914 35.0974ZM32.9942 24.4383L32.7895 1.98632L29.7896 2.01368L29.9944 24.4657L32.9942 24.4383ZM51.2229 12.8314L30.8193 23.1125L32.1693 25.7916L52.5729 15.5105L51.2229 12.8314ZM1.25043 18.1917L22.0853 30.2115L23.5844 27.6129L2.74957 15.5931L1.25043 18.1917ZM23.5217 30.2457L32.1811 25.7855L30.8075 23.1185L22.148 27.5787L23.5217 30.2457ZM21.3348 28.9088L21.3107 39.5492L24.3107 39.556L24.3348 28.9156L21.3348 28.9088ZM21.3107 39.5492L21.2594 62.171L24.2593 62.1779L24.3107 39.556L21.3107 39.5492ZM3.7371 71.7818C3.58944 71.6996 3.5 71.5455 3.5 71.3806H0.5C0.5 72.6364 1.18107 73.7919 2.27698 74.4025L3.7371 71.7818ZM21.2593 80.7564C21.2593 81.1021 20.8814 81.3339 20.5651 81.1577L19.105 83.7784C21.4092 85.0622 24.2593 83.4046 24.2593 80.7564H21.2593Z" fill="#E43E2E"/>
<path d="M67.3047 33.1163H74.1008C75.3159 33.1163 76.3748 33.3853 77.2775 33.9235C78.1802 34.4442 78.8658 35.1473 79.3345 36.0326C79.8032 36.9005 80.0376 37.8292 80.0376 38.8187C80.0376 39.8082 79.8032 40.7282 79.3345 41.5788C78.8658 42.412 78.1802 43.0891 77.2775 43.6098C76.3748 44.1132 75.2986 44.3649 74.0487 44.3649H70.3772V50.8225H67.3047V33.1163ZM73.7102 41.735C74.7691 41.735 75.5676 41.4486 76.1058 40.8758C76.6612 40.3029 76.939 39.6086 76.939 38.7927C76.939 37.9421 76.6526 37.2304 76.0797 36.6575C75.5069 36.0847 74.7431 35.7982 73.7883 35.7982H70.3772V41.735H73.7102Z" fill="#212D39"/>
<path d="M83.8042 36.7877C83.2661 36.7877 82.8321 36.6315 82.5023 36.319C82.1898 35.9892 82.0336 35.5812 82.0336 35.0952C82.0336 34.6091 82.1898 34.2099 82.5023 33.8974C82.8321 33.5676 83.2661 33.4027 83.8042 33.4027C84.3424 33.4027 84.7677 33.5676 85.0801 33.8974C85.41 34.2272 85.5749 34.6352 85.5749 35.1212C85.5749 35.5899 85.41 35.9892 85.0801 36.319C84.7503 36.6315 84.325 36.7877 83.8042 36.7877ZM82.3721 39.2093H85.2103V50.8225H82.3721V39.2093Z" fill="#212D39"/>
<path d="M94.0454 51.161C92.8476 51.161 91.7713 50.9006 90.8166 50.3799C89.8792 49.8591 89.1414 49.13 88.6033 48.1926C88.0825 47.2552 87.8221 46.1963 87.8221 45.0159C87.8221 43.8355 88.0825 42.7853 88.6033 41.8652C89.1414 40.9278 89.8792 40.1988 90.8166 39.678C91.7713 39.1572 92.8476 38.8968 94.0454 38.8968C95.2431 38.8968 96.3194 39.1572 97.2742 39.678C98.2289 40.1988 98.9667 40.9278 99.4874 41.8652C100.026 42.7853 100.295 43.8355 100.295 45.0159C100.295 46.1963 100.026 47.2552 99.4874 48.1926C98.9667 49.13 98.2289 49.8591 97.2742 50.3799C96.3194 50.9006 95.2431 51.161 94.0454 51.161ZM94.0454 48.6353C95.0522 48.6353 95.8594 48.3055 96.467 47.6458C97.0919 46.9688 97.4043 46.0922 97.4043 45.0159C97.4043 43.9396 97.0919 43.0717 96.467 42.412C95.8594 41.735 95.0522 41.3965 94.0454 41.3965C93.0559 41.3965 92.2487 41.735 91.6238 42.412C90.9988 43.0891 90.6864 43.957 90.6864 45.0159C90.6864 46.0748 90.9988 46.9428 91.6238 47.6198C92.2487 48.2968 93.0559 48.6353 94.0454 48.6353Z" fill="#212D39"/>
<path d="M109.298 38.8968C110.618 38.8968 111.624 39.3048 112.319 40.1206C113.031 40.9192 113.386 42.0649 113.386 43.5577V50.8225H110.548V43.8181C110.548 42.2385 109.889 41.4486 108.569 41.4486C107.701 41.4486 107.007 41.7264 106.486 42.2819C105.983 42.8373 105.731 43.5577 105.731 44.4431V50.8225H102.893V39.2093H104.82L105.393 41.032C105.809 40.3897 106.339 39.8776 106.981 39.4957C107.641 39.0965 108.413 38.8968 109.298 38.8968Z" fill="#212D39"/>
<path d="M121.859 38.8968C123.49 38.8968 124.775 39.4089 125.712 40.4331C126.667 41.4573 127.144 42.846 127.144 44.5993C127.144 44.877 127.11 45.3284 127.04 45.9533H118.708C118.881 46.8733 119.298 47.5851 119.958 48.0885C120.635 48.5745 121.451 48.8176 122.405 48.8176C123.048 48.8176 123.612 48.7308 124.098 48.5572C124.601 48.3662 125.061 48.0885 125.478 47.7239L126.676 49.5466C125.999 50.0848 125.296 50.4927 124.567 50.7705C123.837 51.0308 123.03 51.161 122.145 51.161C120.912 51.161 119.819 50.9006 118.864 50.3799C117.927 49.8591 117.189 49.13 116.651 48.1926C116.13 47.2552 115.87 46.1877 115.87 44.9899C115.87 43.8615 116.121 42.8373 116.625 41.9173C117.146 40.9799 117.857 40.2422 118.76 39.704C119.68 39.1659 120.713 38.8968 121.859 38.8968ZM121.806 41.2143C121.025 41.2143 120.357 41.466 119.801 41.9694C119.246 42.4554 118.881 43.1411 118.708 44.0264H124.462C124.428 43.1238 124.167 42.4294 123.681 41.9434C123.195 41.4573 122.57 41.2143 121.806 41.2143Z" fill="#212D39"/>
<path d="M135.502 38.9489C136.265 38.9489 136.934 39.1138 137.507 39.4436L136.777 41.8392C136.291 41.6656 135.788 41.5788 135.267 41.5788C134.434 41.5788 133.766 41.8392 133.262 42.36C132.759 42.8807 132.507 43.5925 132.507 44.4951V50.8225H129.669V39.2093H131.596L132.143 40.9278C132.472 40.2856 132.924 39.7995 133.497 39.4697C134.069 39.1225 134.738 38.9489 135.502 38.9489Z" fill="#212D39"/>
<path d="M142.773 51.0829C141.107 51.0829 139.605 50.6576 138.268 49.807L139.388 47.802C140.412 48.4443 141.471 48.7655 142.565 48.7655C143.085 48.7655 143.502 48.6613 143.815 48.453C144.127 48.2273 144.283 47.9322 144.283 47.5677C144.283 47.1858 144.101 46.882 143.736 46.6563C143.372 46.4133 142.808 46.1443 142.044 45.8491C141.002 45.4499 140.195 44.9812 139.622 44.4431C139.049 43.8876 138.763 43.1672 138.763 42.2819C138.763 41.2577 139.154 40.4592 139.935 39.8863C140.733 39.3135 141.714 39.027 142.877 39.027C144.214 39.027 145.481 39.3742 146.679 40.0686L145.689 41.9694C144.821 41.5181 143.962 41.2924 143.112 41.2924C142.625 41.2924 142.226 41.3705 141.914 41.5267C141.619 41.683 141.471 41.9347 141.471 42.2819C141.471 42.629 141.645 42.9328 141.992 43.1932C142.356 43.4362 142.886 43.6793 143.58 43.9223C144.709 44.3389 145.568 44.825 146.158 45.3805C146.766 45.9359 147.069 46.665 147.069 47.5677C147.069 48.644 146.67 49.5032 145.872 50.1455C145.09 50.7705 144.058 51.0829 142.773 51.0829Z" fill="#212D39"/>
<path d="M159.814 50.6663V50.8225H156.533L152.367 45.8752V50.8225H149.528V32.0747H152.367V43.8181L156.22 39.2093H159.423V39.3395L154.814 44.8336L159.814 50.6663Z" fill="#212D39"/>
<path d="M163.064 36.7877C162.526 36.7877 162.092 36.6315 161.763 36.319C161.45 35.9892 161.294 35.5812 161.294 35.0952C161.294 34.6091 161.45 34.2099 161.763 33.8974C162.092 33.5676 162.526 33.4027 163.064 33.4027C163.603 33.4027 164.028 33.5676 164.34 33.8974C164.67 34.2272 164.835 34.6352 164.835 35.1212C164.835 35.5899 164.67 35.9892 164.34 36.319C164.011 36.6315 163.585 36.7877 163.064 36.7877ZM161.632 39.2093H164.471V50.8225H161.632V39.2093Z" fill="#212D39"/>
<path d="M178.644 39.2093V39.2874L171.795 56.551H168.775V56.499L171.353 50.5361L166.379 39.2874V39.2093H169.452L171.926 45.1461C172.238 45.9099 172.498 46.6563 172.707 47.3854C172.88 46.7258 173.115 45.9793 173.41 45.1461L175.675 39.2093H178.644Z" fill="#212D39"/>
</svg>
