<svg width="50" height="38" viewBox="0 0 50 38" fill="none" xmlns="http://www.w3.org/2000/svg">
<path d="M0.0426725 1.59189C0.211421 15.4912 12.1931 26.8108 27.102 27.3164L27.102 34.6251C27.1019 36.3482 28.5025 37.75 30.2244 37.75C30.9989 37.75 31.747 37.4529 32.3264 36.9139C32.3264 36.9139 45.4932 24.7235 49.2804 20.9222C49.7438 20.4542 50 19.7727 50 19.0006C50 18.2285 49.7438 17.547 49.2804 17.078C45.4932 13.2777 32.3264 1.0873 32.3264 1.0873C31.747 0.548143 30.9989 0.25117 30.2244 0.25117C28.5026 0.251169 27.102 1.65293 27.102 3.37607L27.102 10.6603C12.1138 10.4498 2.12226 5.71865 2.12226 1.29277C2.12226 0.716989 1.65673 0.251167 1.08144 0.251167C1.06513 0.249116 1.04892 0.25019 1.04082 0.251167C0.465522 0.251167 -4.39187e-06 0.717086 -4.4422e-06 1.29277C-4.45128e-06 1.39658 0.0142545 1.49726 0.0426725 1.59189Z" fill="#E43E2E"/>
</svg>
